<svg width="24" height="24" viewBox="0 0 24 24" fill="none" xmlns="http://www.w3.org/2000/svg">
<path d="M6.969 7.49995H7.875C8.17337 7.49995 8.45952 7.61848 8.6705 7.82946C8.88147 8.04043 9 8.32658 9 8.62495C9 8.92332 8.88147 9.20947 8.6705 9.42045C8.45952 9.63142 8.17337 9.74995 7.875 9.74995H4.125C3.82663 9.74995 3.54048 9.63142 3.3295 9.42045C3.11853 9.20947 3 8.92332 3 8.62495V4.87495C3 4.57658 3.11853 4.29043 3.3295 4.07946C3.54048 3.86848 3.82663 3.74995 4.125 3.74995C4.42337 3.74995 4.70952 3.86848 4.9205 4.07946C5.13147 4.29043 5.25 4.57658 5.25 4.87495V6.04645C6.60713 4.50857 8.44884 3.48038 10.4701 3.13214C12.4914 2.78391 14.571 3.13653 16.3645 4.13161C18.158 5.12669 19.5579 6.70453 20.3322 8.60382C21.1065 10.5031 21.2088 12.6099 20.6223 14.5753C20.0357 16.5407 18.7954 18.2468 17.1068 19.411C15.4182 20.5753 13.3826 21.1278 11.337 20.9772C9.29152 20.8265 7.35882 19.9817 5.85901 18.5826C4.3592 17.1835 3.38227 15.3141 3.09 13.284C3.04783 12.9884 3.12481 12.6881 3.304 12.4493C3.48319 12.2105 3.74992 12.0526 4.0455 12.0105C4.34108 11.9683 4.64131 12.0453 4.88014 12.2245C5.11897 12.4036 5.27683 12.6704 5.319 12.966C5.5386 14.4868 6.2704 15.8872 7.39351 16.9358C8.51662 17.9845 9.96385 18.6187 11.4961 18.7336C13.0284 18.8486 14.554 18.4374 15.821 17.568C17.088 16.6987 18.0206 15.4231 18.4646 13.9521C18.9087 12.4811 18.8377 10.9026 18.2633 9.47743C17.689 8.05223 16.6456 6.86558 15.3057 6.11351C13.9658 5.36144 12.4094 5.08893 10.8936 5.34101C9.37783 5.59309 7.9934 6.35467 6.969 7.49995ZM11.625 7.49995C11.9234 7.49995 12.2095 7.61848 12.4205 7.82946C12.6315 8.04043 12.75 8.32658 12.75 8.62495V11.25H13.875C14.1734 11.25 14.4595 11.3685 14.6705 11.5795C14.8815 11.7904 15 12.0766 15 12.375C15 12.6733 14.8815 12.9595 14.6705 13.1704C14.4595 13.3814 14.1734 13.5 13.875 13.5H11.625C11.3266 13.5 11.0405 13.3814 10.8295 13.1704C10.6185 12.9595 10.5 12.6733 10.5 12.375V8.62495C10.5 8.32658 10.6185 8.04043 10.8295 7.82946C11.0405 7.61848 11.3266 7.49995 11.625 7.49995Z" fill="#008000"/>
</svg>
