<svg width="24" height="24" viewBox="0 0 24 24" fill="none" xmlns="http://www.w3.org/2000/svg">
<path d="M4.293 10.707L11.293 3.70697C11.4805 3.5195 11.7348 3.41418 12 3.41418C12.2652 3.41418 12.5195 3.5195 12.707 3.70697L19.707 10.707C19.8946 10.8945 19.9999 11.1488 20 11.414V21C20 21.2652 19.8946 21.5195 19.7071 21.7071C19.5196 21.8946 19.2652 22 19 22H14V15H10V22H5C4.73478 22 4.48043 21.8946 4.29289 21.7071C4.10536 21.5195 4 21.2652 4 21V11.414C4.00006 11.1488 4.10545 10.8945 4.293 10.707Z" fill="#008000"/>
</svg>
