<svg width="24" height="24" viewBox="0 0 24 24" fill="none" xmlns="http://www.w3.org/2000/svg">
<path d="M6.969 7.5H7.875C8.17337 7.5 8.45952 7.61852 8.6705 7.8295C8.88147 8.04048 9 8.32663 9 8.625C9 8.92337 8.88147 9.20951 8.6705 9.42049C8.45952 9.63147 8.17337 9.75 7.875 9.75H4.125C3.82663 9.75 3.54048 9.63147 3.3295 9.42049C3.11853 9.20951 3 8.92337 3 8.625V4.875C3 4.57663 3.11853 4.29048 3.3295 4.0795C3.54048 3.86852 3.82663 3.75 4.125 3.75C4.42337 3.75 4.70952 3.86852 4.9205 4.0795C5.13147 4.29048 5.25 4.57663 5.25 4.875V6.0465C6.60713 4.50862 8.44884 3.48042 10.4701 3.13219C12.4914 2.78396 14.571 3.13658 16.3645 4.13166C18.158 5.12673 19.5579 6.70457 20.3322 8.60386C21.1065 10.5032 21.2088 12.61 20.6223 14.5754C20.0357 16.5408 18.7954 18.2469 17.1068 19.4111C15.4182 20.5753 13.3826 21.1279 11.337 20.9772C9.29152 20.8265 7.35882 19.9817 5.85901 18.5826C4.3592 17.1835 3.38227 15.3141 3.09 13.284C3.04783 12.9884 3.12481 12.6882 3.304 12.4494C3.48319 12.2105 3.74992 12.0527 4.0455 12.0105C4.34108 11.9683 4.64131 12.0453 4.88014 12.2245C5.11897 12.4037 5.27683 12.6704 5.319 12.966C5.5386 14.4868 6.2704 15.8872 7.39351 16.9359C8.51662 17.9845 9.96385 18.6187 11.4961 18.7337C13.0284 18.8486 14.554 18.4375 15.821 17.5681C17.088 16.6987 18.0206 15.4232 18.4646 13.9522C18.9087 12.4812 18.8377 10.9027 18.2633 9.47748C17.689 8.05228 16.6456 6.86563 15.3057 6.11356C13.9658 5.36148 12.4094 5.08898 10.8936 5.34106C9.37783 5.59314 7.9934 6.35472 6.969 7.5ZM11.625 7.5C11.9234 7.5 12.2095 7.61852 12.4205 7.8295C12.6315 8.04048 12.75 8.32663 12.75 8.625V11.25H13.875C14.1734 11.25 14.4595 11.3685 14.6705 11.5795C14.8815 11.7905 15 12.0766 15 12.375C15 12.6734 14.8815 12.9595 14.6705 13.1705C14.4595 13.3815 14.1734 13.5 13.875 13.5H11.625C11.3266 13.5 11.0405 13.3815 10.8295 13.1705C10.6185 12.9595 10.5 12.6734 10.5 12.375V8.625C10.5 8.32663 10.6185 8.04048 10.8295 7.8295C11.0405 7.61852 11.3266 7.5 11.625 7.5Z" fill="#B5B5B5"/>
</svg>
