<svg width="24" height="24" viewBox="0 0 24 24" fill="none" xmlns="http://www.w3.org/2000/svg">
<path d="M19.2 7.2H4.2V6.6L17.4 5.544V6.6H19.2V4.8C19.2 3.48 18.1308 2.5536 16.8252 2.7396L4.776 4.4604C3.4692 4.6476 2.4 5.88 2.4 7.2V19.2C2.4 19.8365 2.65286 20.447 3.10295 20.8971C3.55303 21.3471 4.16348 21.6 4.8 21.6H19.2C19.8365 21.6 20.447 21.3471 20.8971 20.8971C21.3471 20.447 21.6 19.8365 21.6 19.2V9.6C21.6 8.96348 21.3471 8.35303 20.8971 7.90294C20.447 7.45285 19.8365 7.2 19.2 7.2ZM17.4 15.6072C17.1635 15.6071 16.9294 15.5605 16.711 15.4699C16.4926 15.3793 16.2941 15.2466 16.127 15.0794C15.9598 14.9121 15.8272 14.7136 15.7368 14.4951C15.6464 14.2766 15.5999 14.0425 15.6 13.806C15.6001 13.5695 15.6467 13.3354 15.7373 13.117C15.8279 12.8986 15.9606 12.7001 16.1278 12.533C16.2951 12.3658 16.4936 12.2332 16.7121 12.1428C16.9306 12.0524 17.1647 12.0059 17.4012 12.006C17.8787 12.0062 18.3367 12.196 18.6742 12.5338C19.0118 12.8716 19.2014 13.3296 19.2012 13.8072C19.201 14.2847 19.0112 14.7427 18.6734 15.0802C18.3356 15.4178 17.8775 15.6074 17.4 15.6072Z" fill="#008000"/>
</svg>
