<svg xmlns="http://www.w3.org/2000/svg" width="170" height="60" viewBox="0 0 13253392 4705584" shape-rendering="geometricPrecision" text-rendering="geometricPrecision" image-rendering="optimizeQuality" fill-rule="evenodd" clip-rule="evenodd">
  <defs>
    <style>
<![CDATA[
    .fil0 {fill:#006677}
    .fil3 {fill:#A1A1A1}
    .fil2 {fill:#E45300}
    .fil1 {fill:white}
   ]]>
    </style>
  </defs>
  <g id="Layer_x0020_1">
    <path class="fil0" d="M7981672 0h815757l1988304 2679842V408351c0-229705-314360-399871-314360-399871h1019578s-267644 153176-267644 395646v3445486s-471584-191411-828463-676350c-356908-484940-1695101-2233197-1695101-2233197v2314040c0 165911 280350 370116 280350 370116H7973251s280349-153147 280349-357322V442390C8253600 136127 7981672 0 7981672 0zm4387619 2679399V404953c0-230000-316103-400373-316103-400373h1200204s-269063 153353-269063 396148v2829650c0 217235 256269 396059 256269 396059h-1153253s281946-174657 281946-353481v-593557zM5525566 366541v1097525h521578c241702 0 585225-127617 585225-574262 0-446675-508843-523263-686987-523263h-419816zm0 1454847v1429289h686987c267172 0 763339-229675 763339-676321 0-446675-407139-752968-788779-752968h-661547zM4636914 3280h1763061c394405 0 843030 337761 843030 797171 0 625321-479237 710419-479237 710419s839691 204176 839691 1008143c0 804056-916249 1107424-1221567 1107424l-1767582-4521s304816-158494 304816-426464V438845c0-280734-282212-435565-282212-435565z" id="_719544272"/>
    <g id="_719545616">
      <path class="fil1" d="M-30 3626437h3623217V3280H-30z"/>
      <path class="fil2" d="M-30 3280h1132244c-3279 8066-11612 29518-21747 68699-49522 191529-120703 744487 376263 1554660 122594 199891 241405 358710 363290 514132l-393695 314773C803436 1656098-30 637347-30 637347V3280zm0 1381332v2241825l1097792-886406-756780-941690L-30 1384612zm3623217-226455c-8067-10991-41633-61902-90801-112400-150487-154564-475897-403357-867968-190642-362168 196493-547403 646713-95794 1241955 371091 489755 706637 537593 895625 509937 32532-4758 132995-29016 158938-44854V1158157zm0-656671l-30-498206H1607758c-2335 8776-16990 39269-22811 90298-13061 114616-17670 332975 63616 642666 111602 424986 422002 803849 422002 803849s-31941-422505 357589-813009c246429-247050 525892-323608 752465-320092 79986 1241 153501 12115 216734 26475 26652 6028 205121 57293 225834 68019zm0 2241825c-8953 7535-30494 21363-67251 46420-98749 67280-311346 166590-661636 113936-317373-47749-621007-259105-899732-588032l-398718 319767c281295 338530 499122 609484 572194 661931 275061 197468 464462 122505 464462 122505l-254791 206599h1245472v-883126zm-1879539 883126H362286l112755-91628 766973-614595s304018 394730 423628 539603c22633 27420 39860 53186 52950 76440 23608 41899 20624 69526 25056 90180z"/>
    </g>
    <path class="fil3" d="M59539 4553885h73219v-487628l172087 487628h71713l178912-490642v490642h73958v-545010H504884l-157756 449127-154003-449127H59539v545010zm1011866-176637c1507-61903 5289-212124-164552-212124-21895 0-67162 2275-103417 27952-59628 41515-74727 103388-74727 178115 0 120023 56614 194011 175898 194011 76234 0 113966-31705 130572-50586 27184-29430 30198-60396 32473-79248h-70974c-6027 54339-43021 78509-89057 78509-77740 0-110213-58121-108706-136629h272490zm-269476-49818c1507-83798 57382-111720 103417-111720 87580 0 94346 75494 93608 111720H801929zm360483 226455h70945v-543474h-70945v543474zm488781 0c-5289-38501-6057-89087-6057-95115l3043-181158c0-17374-768-35487-12853-58120-20359-38501-79248-55875-134354-55875-40008 0-93608 9071-122269 40776-21895 25647-24171 52063-26416 71713h70944c739-15099 4521-64178 76234-64178 20388 0 51324 6057 65685 24908 13562 16606 13562 36994 13562 83798-21865-1507-33212-2275-51325-2275-30198 0-90564 2275-131340 24909-55845 32473-66423 80784-66423 110952 0 62671 46803 111720 133615 111720 31705 0 83029-6027 116980-68669 0 19620 1536 37733 6796 56614h64178zm-72481-184201c-1507 52861-2246 73987-18113 99635-17344 26416-44528 40776-80754 40776-63410 0-78509-41515-78509-65685 0-76972 107939-76972 136630-76972 17344 0 27922 739 40746 2246zm521254-194721h-77002l-120762 298906-118517-298906h-80015l157756 377385-57353 144933h73220l54338-141151 168335-381167zm361222 378922c-5289-38501-6057-89087-6057-95115l3043-181158c0-17374-768-35487-12853-58120-20359-38501-79247-55875-134354-55875-40008 0-93608 9071-122269 40776-21895 25647-24170 52063-26416 71713h70944c739-15099 4521-64178 76234-64178 20388 0 51324 6057 65685 24908 13562 16606 13562 36994 13562 83798-21865-1507-33212-2275-51324-2275-30198 0-90565 2275-131341 24909-55845 32473-66423 80784-66423 110952 0 62671 46804 111720 133615 111720 31705 0 83030-6027 116980-68669 0 19620 1537 37733 6796 56614h64178zm-72481-184201c-1507 52861-2245 73987-18113 99635-17344 26416-44528 40776-80754 40776-63410 0-78509-41515-78509-65685 0-76972 107939-76972 136630-76972 17344 0 27922 739 40746 2246zm184586 184201h70974v-218152c0-76233 47542-113227 98867-113227 24170 0 49079 8303 67191 25647 17345 17374 20388 40008 20388 64917v240815h72452v-257421c0-116241-103418-129065-137368-129065-86073 0-113228 52832-121530 68699l-769-61135h-70944l739 43761v335161zm437455-465733h85305v-77741h-85305v77741zm7565 465733h70944v-378922h-70944v378922zm424218 0h68699v-462719l277011 462719h96621v-545010h-69437v450634l-267969-450634h-104925v545010zm882801-176637c1507-61903 5289-212124-164552-212124-21895 0-67192 2275-103417 27952-59628 41515-74727 103388-74727 178115 0 120023 56614 194011 175869 194011 76263 0 113996-31705 130602-50586 27184-29430 30197-60396 32443-79248h-70944c-6028 54339-43022 78509-89057 78509-77770 0-110214-58121-108707-136629h272490zm-269476-49818c1507-83798 57382-111720 103417-111720 87551 0 94347 75494 93608 111720h-197025zm351412 255885c3014 51324 7535 122269 159263 122269 52093 0 126051-7535 157756-67931 15099-28691 18113-65655 18113-156988l768-237033 1507-68669h-68698l-739 52064c-15099-19620-43022-57353-119285-57353-92839 0-168304 62642-168304 190968 0 50556 10548 101142 43021 139643 31705 39240 81523 46804 116242 46804 22633 0 94346-1537 124544-64178 0 102649-1507 174362-100404 174362-67162 0-85275-31705-88318-73958h-75466zm157756-89087c-86811 0-104156-76972-104156-135093 0-48311 12056-138904 101881-138904 32473 0 62671 12853 81523 33211 18881 19620 29459 46804 29459 94376 0 68669-10578 89057-25677 108677-17345 22634-41515 37733-83030 37733zm611818-116980c1507-61903 5289-212124-164552-212124-21895 0-67162 2275-103417 27952-59628 41515-74727 103388-74727 178115 0 120023 56614 194011 175869 194011 76263 0 113996-31705 130601-50586 27184-29430 30198-60396 32444-79248h-70944c-6028 54339-43022 78509-89058 78509-77770 0-110213-58121-108706-136629h272490zm-269476-49818c1507-83798 57382-111720 103417-111720 87551 0 94347 75494 93608 111720h-197025zm362729 226455h71713v-201546c0-64917 19620-114734 103417-114734 8303 0 15099 0 20388 738 5260 769 9810 1507 13563 3044v-69467c-12056-739-27923-1507-49050 1507-31705 4550-77001 21895-90593 74726l-1507-73190h-71713c2275 24909 3782 51325 3782 76972v301950zm268383-465733h85305v-77741h-85305v77741zm7535 465733h70974v-378922h-70974v378922zm213276-90594l-48310 185679h51324l84537-185679h-87551zm404599 90594h74727v-289126l251363 289126h105663l-270215-301181 243799-243829h-103417l-227193 238540v-238540h-74727v545010zm785441-176637c1507-61903 5259-212124-164552-212124-21895 0-67192 2275-103418 27952-59627 41515-74726 103388-74726 178115 0 120023 56614 194011 175869 194011 76233 0 113966-31705 130572-50586 27184-29430 30198-60396 32473-79248h-70945c-6057 54339-43051 78509-89086 78509-77741 0-110214-58121-108707-136629h272520zm-269476-49818c1506-83798 57352-111720 103387-111720 87580 0 94376 75494 93608 111720h-196995zm429891-318555h-70944v477050l-1507 67960h68669l1507-57382c7564 11317 15867 24141 36994 38501 32473 21895 66423 24140 84536 24140 52093 0 102679-21865 132877-64916 18852-24909 36226-64917 36226-138136 0-83030-25677-120763-44529-142657-34748-39240-82291-48311-120023-48311-86073 0-113996 47572-123806 64916v-221165zm213631 351767c0 61903-21895 147178-109475 147178-105663 0-105663-118487-105663-143396 0-24170 0-150989 108707-150989 98867 0 106431 109474 106431 147207zm457076 193243c-5289-38501-6028-89087-6028-95115l3014-181158c0-17374-768-35487-12853-58120-20359-38501-79248-55875-134354-55875-40008 0-93579 9071-122269 40776-21895 25647-24171 52063-26416 71713h70944c768-15099 4521-64178 76234-64178 20388 0 51324 6057 65684 24908 13563 16606 13563 36994 13563 83798-21865-1507-33212-2275-51325-2275-30198 0-90564 2275-131340 24909-55845 32473-66423 80784-66423 110952 0 62671 46803 111720 133615 111720 31705 0 83029-6027 117009-68669 0 19620 1507 37733 6767 56614h64178zm-72481-184201c-1507 52861-2246 73987-18113 99635-17344 26416-44529 40776-80754 40776-63410 0-78509-41515-78509-65685 0-76972 107938-76972 136629-76972 17375 0 27923 739 40747 2246zm184615 184201h70944v-218152c0-76233 47543-113227 98867-113227 24171 0 49079 8303 67192 25647 17374 17374 20388 40008 20388 64917v240815h72452v-257421c0-116241-103418-129065-137368-129065-86044 0-113228 52832-121531 68699l-768-61135h-70944l768 43761v335161zm436688 29430c3013 51324 7534 122269 159262 122269 52093 0 126052-7535 157756-67931 15099-28691 18113-65655 18113-156988l768-237033 1507-68669h-68698l-739 52064c-15099-19620-43022-57353-119255-57353-92869 0-168334 62642-168334 190968 0 50556 10548 101142 43021 139643 31705 39240 81523 46804 116242 46804 22633 0 94346-1537 124544-64178 0 102649-1507 174362-100374 174362-67192 0-85305-31705-88319-73958h-75494zm157755-89087c-86811 0-104156-76972-104156-135093 0-48311 12056-138904 101881-138904 32473 0 62671 12853 81523 33211 18881 19620 29459 46804 29459 94376 0 68669-10578 89057-25677 108677-17345 22634-41515 37733-83030 37733zm288772 89087c3013 51324 7534 122269 159263 122269 52063 0 126051-7535 157755-67931 15099-28691 18113-65655 18113-156988l769-237033 1506-68669h-68698l-768 52064c-15070-19620-43022-57353-119256-57353-92839 0-168334 62642-168334 190968 0 50556 10578 101142 43022 139643 31705 39240 81522 46804 116271 46804 22633 0 94346-1537 124544-64178 0 102649-1507 174362-100404 174362-67191 0-85304-31705-88318-73958h-75465zm157756-89087c-86812 0-104186-76972-104186-135093 0-48311 12085-138904 101910-138904 32473 0 62642 12853 81523 33211 18881 19620 29430 46804 29430 94376 0 68669-10549 89057-25648 108677-17374 22634-41515 37733-83029 37733zm576330 59657c-5289-38501-6027-89087-6027-95115l3013-181158c0-17374-768-35487-12823-58120-20388-38501-79277-55875-134384-55875-39978 0-93578 9071-122269 40776-21895 25647-24140 52063-26416 71713h70945c768-15099 4550-64178 76233-64178 20388 0 51354 6057 65685 24908 13592 16606 13592 36994 13592 83798-21895-1507-33212-2275-51325-2275-30197 0-90593 2275-131340 24909-55875 32473-66453 80784-66453 110952 0 62671 46804 111720 133615 111720 31705 0 83030-6027 117010-68669 0 19620 1507 37733 6796 56614h64148zm-72451-184201c-1507 52861-2275 73987-18113 99635-17374 26416-44558 40776-80784 40776-63409 0-78508-41515-78508-65685 0-76972 107938-76972 136629-76972 17374 0 27923 739 40776 2246zm477464 184201c-5289-38501-6058-89087-6058-95115l3014-181158c0-17374-738-35487-12823-58120-20388-38501-79248-55875-134355-55875-40007 0-93607 9071-122269 40776-21894 25647-24170 52063-26445 71713h70974c739-15099 4521-64178 76234-64178 20388 0 51324 6057 65655 24908 13592 16606 13592 36994 13592 83798-21895-1507-33212-2275-51325-2275-30198 0-90564 2275-131340 24909-55845 32473-66424 80784-66424 110952 0 62671 46804 111720 133616 111720 31705 0 83029-6027 116980-68669 0 19620 1507 37733 6796 56614h64178zm-72481-184201c-1507 52861-2246 73987-18113 99635-17345 26416-44529 40776-80754 40776-63410 0-78509-41515-78509-65685 0-76972 107938-76972 136629-76972 17345 0 27923 739 40747 2246zm184585 184201h70974v-218152c0-76233 47543-113227 98867-113227 24170 0 49079 8303 67192 25647 17345 17374 20388 40008 20388 64917v240815h72451v-257421c0-116241-103417-129065-137368-129065-86072 0-113227 52832-121530 68699l-768-61135h-70944l738 43761v335161zm674075 0h198532c43022 0 85275 0 123038-24939 18112-12055 65655-49817 65655-123775 0-104157-77002-126820-108677-135861 26416-9810 92071-33212 92071-123038 0-43021-15099-74726-38501-97389-33950-33212-70944-40008-137368-40008h-194750v545010zm73220-483107h108706c41515 0 110184 0 110184 82290 0 86044-87550 86044-113227 86044h-105663v-168334zm0 233250h132108c66424 0 104156 40008 104156 94347 0 62641-47542 94346-107199 94346h-129065v-188693zm705425 249857c-5289-38501-6028-89087-6028-95115l3014-181158c0-17374-768-35487-12853-58120-20358-38501-79247-55875-134354-55875-40008 0-93608 9071-122269 40776-21895 25647-24170 52063-26416 71713h70945c738-15099 4520-64178 76233-64178 20388 0 51325 6057 65685 24908 13562 16606 13562 36994 13562 83798-21865-1507-33211-2275-51324-2275-30198 0-90564 2275-131340 24909-55846 32473-66424 80784-66424 110952 0 62671 46804 111720 133615 111720 31705 0 83030-6027 117010-68669 0 19620 1507 37733 6766 56614h64178zm-72481-184201c-1507 52861-2245 73987-18112 99635-17345 26416-44529 40776-80755 40776-63409 0-78508-41515-78508-65685 0-76972 107938-76972 136629-76972 17374 0 27923 739 40746 2246zm184586 184201h70974v-218152c0-76233 47542-113227 98867-113227 24170 0 49079 8303 67192 25647 17374 17374 20388 40008 20388 64917v240815h72451v-257421c0-116241-103418-129065-137368-129065-86073 0-113227 52832-121530 68699l-769-61135h-70944l739 43761v335161zm436717 29430c3014 51324 7535 122269 159263 122269 52093 0 126051-7535 157756-67931 15099-28691 18113-65655 18113-156988l768-237033 1507-68669h-68699l-739 52064c-15099-19620-43021-57353-119255-57353-92869 0-168334 62642-168334 190968 0 50556 10549 101142 43022 139643 31705 39240 81522 46804 116241 46804 22634 0 94346-1537 124544-64178 0 102649-1507 174362-100403 174362-67163 0-85275-31705-88289-73958h-75495zm157756-89087c-86812 0-104156-76972-104156-135093 0-48311 12055-138904 101881-138904 32473 0 62671 12853 81522 33211 18881 19620 29459 46804 29459 94376 0 68669-10578 89057-25677 108677-17344 22634-41514 37733-83029 37733zm262326-52832c-739 91333 70974 123037 147946 123037 39269 0 79277-5289 112488-25647 27923-17374 51325-53600 51325-95883 0-24140-7564-50556-28691-70176-22634-21156-45297-27184-150192-52093-19649-5289-53599-13592-53599-48311 0-54338 66423-54338 76972-54338 25677 0 75494 4521 73219 61873h72481c0-15838 0-33950-9810-55077-22663-45297-89086-58889-136629-58889-87550 0-147946 45297-147946 114734 0 79248 66424 95115 145671 113228 56614 12823 83029 19619 83029 56613 0 12824-4521 25648-12055 35458-15099 18881-36994 24170-66424 24170-68699 0-83797-40008-83059-68699h-74726zm691833 112489c-5259-38501-6028-89087-6028-95115l3014-181158c0-17374-739-35487-12824-58120-20388-38501-79247-55875-134354-55875-40007 0-93607 9071-122298 40776-21895 25647-24141 52063-26416 71713h70974c739-15099 4521-64178 76233-64178 20359 0 51325 6057 65656 24908 13592 16606 13592 36994 13592 83798-21895-1507-33212-2275-51325-2275-30198 0-90594 2275-131340 24909-55875 32473-66424 80784-66424 110952 0 62671 46804 111720 133586 111720 31705 0 83059-6027 117010-68669 0 19620 1507 37733 6796 56614h64148zm-72451-184201c-1507 52861-2275 73987-18113 99635-17374 26416-44529 40776-80784 40776-63380 0-78479-41515-78479-65685 0-76972 107938-76972 136629-76972 17345 0 27923 739 40747 2246z"/>
  </g>
</svg>
