<svg width="41" height="41" viewBox="0 0 41 41" fill="none" xmlns="http://www.w3.org/2000/svg">
<path d="M20.5 0C9.17924 0 0 9.17924 0 20.5C0 31.8208 9.17924 41 20.5 41C31.8208 41 41 31.8208 41 20.5C41 9.17924 31.8208 0 20.5 0ZM21.5204 30.4388L21.5296 31.8894C21.5296 32.0907 21.3648 32.26 21.1635 32.26H19.864C19.6626 32.26 19.4979 32.0953 19.4979 31.894V30.4571C15.4345 30.1551 13.5218 27.8397 13.3158 25.323C13.2975 25.1079 13.4669 24.9249 13.6819 24.9249H15.796C15.9744 24.9249 16.13 25.053 16.1575 25.2269C16.3908 26.6775 17.5211 27.7619 19.5482 28.0319V21.5021L18.418 21.2138C16.0248 20.6419 13.746 19.1501 13.746 16.0568C13.746 12.721 16.281 10.9272 19.5208 10.6115V9.10145C19.5208 8.90011 19.6855 8.73538 19.8868 8.73538H21.1727C21.374 8.73538 21.5387 8.90011 21.5387 9.10145V10.5978C24.6732 10.9135 27.0252 12.7439 27.2998 15.5946C27.3227 15.8097 27.1533 15.9973 26.9337 15.9973H24.8791C24.6961 15.9973 24.5405 15.86 24.5176 15.6816C24.3346 14.3454 23.2638 13.2564 21.5204 13.0184V19.1638L22.6827 19.4338C25.6479 20.166 27.6658 21.5845 27.6658 24.7602C27.6658 28.2058 25.1033 30.1277 21.5204 30.4388ZM16.5922 15.8463C16.5922 17.0086 17.3106 17.91 18.8573 18.4683C19.0723 18.5552 19.2874 18.6239 19.5436 18.6971V13.023C17.8551 13.2381 16.5922 14.1853 16.5922 15.8463ZM21.9231 22.0329C21.795 22.0055 21.6669 21.9734 21.5204 21.9323V28.0502C23.4698 27.8763 24.8151 26.8056 24.8151 25.0118C24.8151 23.607 24.0875 22.6919 21.9231 22.0329Z" fill="white"/>
</svg>
