<svg width="14" height="14" viewBox="0 0 14 14" fill="none" xmlns="http://www.w3.org/2000/svg">
<path d="M7 1C7.51312 1 8.00661 1.19722 8.37841 1.55086C8.7502 1.90451 8.97184 2.38752 8.9975 2.9L9 3H11.5C11.6274 3.00014 11.75 3.04894 11.8427 3.13642C11.9354 3.22391 11.9911 3.34348 11.9986 3.4707C12.0061 3.59792 11.9647 3.72319 11.8829 3.82092C11.8011 3.91864 11.685 3.98145 11.5585 3.9965L11.5 4H11.0755L10.4855 11.2765C10.4474 11.746 10.234 12.184 9.88772 12.5034C9.54141 12.8227 9.08758 13 8.6165 13H5.3835C4.91242 13 4.45859 12.8227 4.11228 12.5034C3.76597 12.184 3.55256 11.746 3.5145 11.2765L2.924 4H2.5C2.37753 3.99998 2.25933 3.95502 2.16781 3.87364C2.0763 3.79226 2.01783 3.68013 2.0035 3.5585L2 3.5C2.00002 3.37753 2.04498 3.25933 2.12636 3.16781C2.20774 3.0763 2.31987 3.01783 2.4415 3.0035L2.5 3H5C5 2.46957 5.21071 1.96086 5.58579 1.58579C5.96086 1.21071 6.46957 1 7 1ZM5.875 5.625C5.78438 5.625 5.69683 5.65782 5.62853 5.71738C5.56024 5.77695 5.51582 5.85922 5.5035 5.949L5.5 6V10L5.5035 10.051C5.51585 10.1408 5.56028 10.223 5.62857 10.2825C5.69686 10.3421 5.7844 10.3749 5.875 10.3749C5.9656 10.3749 6.05314 10.3421 6.12143 10.2825C6.18972 10.223 6.23415 10.1408 6.2465 10.051L6.25 10V6L6.2465 5.949C6.23418 5.85922 6.18976 5.77695 6.12147 5.71738C6.05317 5.65782 5.96562 5.625 5.875 5.625ZM8.125 5.625C8.03438 5.625 7.94683 5.65782 7.87853 5.71738C7.81024 5.77695 7.76582 5.85922 7.7535 5.949L7.75 6V10L7.7535 10.051C7.76585 10.1408 7.81028 10.223 7.87857 10.2825C7.94686 10.3421 8.0344 10.3749 8.125 10.3749C8.2156 10.3749 8.30314 10.3421 8.37143 10.2825C8.43972 10.223 8.48415 10.1408 8.4965 10.051L8.5 10V6L8.4965 5.949C8.48418 5.85922 8.43976 5.77695 8.37147 5.71738C8.30317 5.65782 8.21562 5.625 8.125 5.625ZM7 2C6.74771 1.99992 6.50472 2.0952 6.31973 2.26675C6.13474 2.43829 6.02142 2.67342 6.0025 2.925L6 3H8L7.9975 2.925C7.97858 2.67342 7.86526 2.43829 7.68027 2.26675C7.49528 2.0952 7.25229 1.99992 7 2Z" fill="#D03841"/>
</svg>
