<svg width="112" height="35" viewBox="0 0 112 35" fill="none" xmlns="http://www.w3.org/2000/svg">
<g filter="url(#filter0_d_53_277)">
<rect x="4" width="104" height="27" rx="5" fill="white"/>
<path d="M22 4C16.477 4 12 8.477 12 14C12 18.991 15.657 23.128 20.438 23.879V16.89H17.898V14H20.438V11.797C20.438 9.291 21.93 7.907 24.215 7.907C25.309 7.907 26.453 8.102 26.453 8.102V10.562H25.193C23.95 10.562 23.563 11.333 23.563 12.124V14H26.336L25.893 16.89H23.563V23.879C28.343 23.129 32 18.99 32 14C32 8.477 27.523 4 22 4Z" fill="#0E60DB"/>
<path d="M42.926 8.64C43.1313 8.64 43.332 8.668 43.528 8.724C43.724 8.78 43.8873 8.87333 44.018 9.004C44.1487 9.12533 44.214 9.28867 44.214 9.494C44.214 9.72733 44.144 9.914 44.004 10.054C43.8733 10.1847 43.7193 10.25 43.542 10.25C43.458 10.25 43.332 10.2313 43.164 10.194C42.996 10.1473 42.8327 10.124 42.674 10.124C42.4407 10.124 42.2587 10.1753 42.128 10.278C42.0067 10.3807 41.9227 10.502 41.876 10.642C41.8293 10.7727 41.806 10.8893 41.806 10.992V18.146C41.806 18.3887 41.7267 18.594 41.568 18.762C41.4093 18.9207 41.2087 19 40.966 19C40.7233 19 40.5227 18.9207 40.364 18.762C40.2053 18.594 40.126 18.3887 40.126 18.146V11.006C40.126 10.3433 40.3593 9.78333 40.826 9.326C41.2927 8.86867 41.9927 8.64 42.926 8.64ZM43.08 11.65C43.304 11.65 43.4907 11.7247 43.64 11.874C43.7893 12.014 43.864 12.196 43.864 12.42C43.864 12.644 43.7893 12.8307 43.64 12.98C43.4907 13.12 43.304 13.19 43.08 13.19H39.37C39.146 13.19 38.9593 13.12 38.81 12.98C38.6607 12.8307 38.586 12.644 38.586 12.42C38.586 12.196 38.6607 12.014 38.81 11.874C38.9593 11.7247 39.146 11.65 39.37 11.65H43.08ZM51.3193 11.37C51.562 11.37 51.7627 11.4493 51.9213 11.608C52.08 11.7667 52.1593 11.972 52.1593 12.224V18.146C52.1593 18.3887 52.08 18.594 51.9213 18.762C51.7627 18.9207 51.562 19 51.3193 19C51.0767 19 50.876 18.9207 50.7173 18.762C50.5587 18.594 50.4793 18.3887 50.4793 18.146V17.46L50.7873 17.586C50.7873 17.7073 50.722 17.8567 50.5913 18.034C50.4607 18.202 50.2833 18.37 50.0593 18.538C49.8353 18.706 49.5693 18.8507 49.2613 18.972C48.9627 19.084 48.636 19.14 48.2813 19.14C47.6373 19.14 47.054 18.9767 46.5313 18.65C46.0087 18.314 45.5933 17.8567 45.2853 17.278C44.9867 16.69 44.8373 16.018 44.8373 15.262C44.8373 14.4967 44.9867 13.8247 45.2853 13.246C45.5933 12.658 46.004 12.2007 46.5173 11.874C47.0307 11.538 47.6 11.37 48.2253 11.37C48.6267 11.37 48.9953 11.4307 49.3313 11.552C49.6673 11.6733 49.9567 11.8273 50.1993 12.014C50.4513 12.2007 50.6427 12.392 50.7733 12.588C50.9133 12.7747 50.9833 12.9333 50.9833 13.064L50.4793 13.246V12.224C50.4793 11.9813 50.5587 11.7807 50.7173 11.622C50.876 11.454 51.0767 11.37 51.3193 11.37ZM48.4913 17.6C48.902 17.6 49.2613 17.4973 49.5693 17.292C49.8773 17.0867 50.1153 16.8067 50.2833 16.452C50.4607 16.0973 50.5493 15.7007 50.5493 15.262C50.5493 14.814 50.4607 14.4127 50.2833 14.058C50.1153 13.7033 49.8773 13.4233 49.5693 13.218C49.2613 13.0127 48.902 12.91 48.4913 12.91C48.09 12.91 47.7353 13.0127 47.4273 13.218C47.1193 13.4233 46.8767 13.7033 46.6993 14.058C46.5313 14.4127 46.4473 14.814 46.4473 15.262C46.4473 15.7007 46.5313 16.0973 46.6993 16.452C46.8767 16.8067 47.1193 17.0867 47.4273 17.292C47.7353 17.4973 48.09 17.6 48.4913 17.6ZM57.3104 11.37C57.8424 11.37 58.3044 11.426 58.6964 11.538C59.0977 11.65 59.4057 11.8087 59.6204 12.014C59.8444 12.21 59.9564 12.448 59.9564 12.728C59.9564 12.9147 59.9004 13.092 59.7884 13.26C59.6764 13.4187 59.513 13.498 59.2984 13.498C59.149 13.498 59.023 13.4793 58.9204 13.442C58.827 13.3953 58.743 13.3393 58.6684 13.274C58.5937 13.2087 58.505 13.148 58.4024 13.092C58.309 13.036 58.1644 12.994 57.9684 12.966C57.7817 12.9287 57.6417 12.91 57.5484 12.91C57.0724 12.91 56.6664 13.0127 56.3304 13.218C56.0037 13.4233 55.7517 13.7033 55.5744 14.058C55.397 14.4033 55.3084 14.8047 55.3084 15.262C55.3084 15.71 55.397 16.1113 55.5744 16.466C55.761 16.8113 56.013 17.0867 56.3304 17.292C56.657 17.4973 57.0304 17.6 57.4504 17.6C57.6837 17.6 57.8844 17.586 58.0524 17.558C58.2204 17.53 58.3604 17.488 58.4724 17.432C58.603 17.3573 58.7197 17.278 58.8224 17.194C58.925 17.11 59.079 17.068 59.2844 17.068C59.527 17.068 59.7137 17.1473 59.8444 17.306C59.975 17.4553 60.0404 17.642 60.0404 17.866C60.0404 18.0993 59.9097 18.314 59.6484 18.51C59.387 18.6967 59.0417 18.8507 58.6124 18.972C58.1924 19.084 57.735 19.14 57.2404 19.14C56.503 19.14 55.8637 18.972 55.3224 18.636C54.781 18.2907 54.361 17.824 54.0624 17.236C53.773 16.648 53.6284 15.99 53.6284 15.262C53.6284 14.4967 53.7824 13.8247 54.0904 13.246C54.4077 12.658 54.8417 12.2007 55.3924 11.874C55.9524 11.538 56.5917 11.37 57.3104 11.37ZM64.7798 19.14C63.9865 19.14 63.2958 18.9767 62.7078 18.65C62.1291 18.314 61.6811 17.8613 61.3638 17.292C61.0558 16.7227 60.9018 16.0787 60.9018 15.36C60.9018 14.52 61.0698 13.806 61.4058 13.218C61.7511 12.6207 62.1991 12.1633 62.7498 11.846C63.3005 11.5287 63.8838 11.37 64.4998 11.37C64.9758 11.37 65.4238 11.468 65.8438 11.664C66.2731 11.86 66.6511 12.1307 66.9778 12.476C67.3045 12.812 67.5611 13.204 67.7478 13.652C67.9438 14.1 68.0418 14.576 68.0418 15.08C68.0325 15.304 67.9438 15.486 67.7758 15.626C67.6078 15.766 67.4118 15.836 67.1878 15.836H61.8398L61.4198 14.436H66.5578L66.2498 14.716V14.338C66.2311 14.0673 66.1331 13.8247 65.9558 13.61C65.7878 13.3953 65.5731 13.2273 65.3118 13.106C65.0598 12.9753 64.7891 12.91 64.4998 12.91C64.2198 12.91 63.9585 12.9473 63.7158 13.022C63.4731 13.0967 63.2631 13.2227 63.0858 13.4C62.9085 13.5773 62.7685 13.8153 62.6658 14.114C62.5631 14.4127 62.5118 14.7907 62.5118 15.248C62.5118 15.752 62.6145 16.1813 62.8198 16.536C63.0345 16.8813 63.3051 17.1473 63.6318 17.334C63.9678 17.5113 64.3225 17.6 64.6958 17.6C65.0411 17.6 65.3165 17.572 65.5218 17.516C65.7271 17.46 65.8905 17.3947 66.0118 17.32C66.1425 17.236 66.2591 17.166 66.3618 17.11C66.5298 17.026 66.6885 16.984 66.8378 16.984C67.0431 16.984 67.2111 17.054 67.3418 17.194C67.4818 17.334 67.5518 17.4973 67.5518 17.684C67.5518 17.936 67.4211 18.1647 67.1598 18.37C66.9171 18.5753 66.5765 18.7573 66.1378 18.916C65.6991 19.0653 65.2465 19.14 64.7798 19.14ZM73.3876 11.37C74.0409 11.37 74.6243 11.538 75.1376 11.874C75.6603 12.2007 76.0709 12.6533 76.3696 13.232C76.6776 13.8107 76.8316 14.4827 76.8316 15.248C76.8316 16.0133 76.6776 16.69 76.3696 17.278C76.0709 17.8567 75.6649 18.314 75.1516 18.65C74.6476 18.9767 74.0783 19.14 73.4436 19.14C73.0703 19.14 72.7203 19.0793 72.3936 18.958C72.0669 18.8367 71.7776 18.6827 71.5256 18.496C71.2829 18.3093 71.0916 18.1227 70.9516 17.936C70.8209 17.74 70.7556 17.5767 70.7556 17.446L71.1896 17.264V18.286C71.1896 18.5287 71.1103 18.734 70.9516 18.902C70.7929 19.0607 70.5923 19.14 70.3496 19.14C70.1069 19.14 69.9063 19.0607 69.7476 18.902C69.5889 18.7433 69.5096 18.538 69.5096 18.286V9.494C69.5096 9.25133 69.5889 9.05067 69.7476 8.892C69.9063 8.724 70.1069 8.64 70.3496 8.64C70.5923 8.64 70.7929 8.724 70.9516 8.892C71.1103 9.05067 71.1896 9.25133 71.1896 9.494V13.05L70.9516 12.924C70.9516 12.8027 71.0169 12.658 71.1476 12.49C71.2783 12.3127 71.4556 12.14 71.6796 11.972C71.9036 11.7947 72.1603 11.65 72.4496 11.538C72.7483 11.426 73.0609 11.37 73.3876 11.37ZM73.1776 12.91C72.7669 12.91 72.4076 13.0127 72.0996 13.218C71.7916 13.4233 71.5489 13.7033 71.3716 14.058C71.2036 14.4033 71.1196 14.8 71.1196 15.248C71.1196 15.6867 71.2036 16.088 71.3716 16.452C71.5489 16.8067 71.7916 17.0867 72.0996 17.292C72.4076 17.4973 72.7669 17.6 73.1776 17.6C73.5883 17.6 73.9429 17.4973 74.2416 17.292C74.5496 17.0867 74.7876 16.8067 74.9556 16.452C75.1329 16.088 75.2216 15.6867 75.2216 15.248C75.2216 14.8 75.1329 14.4033 74.9556 14.058C74.7876 13.7033 74.5496 13.4233 74.2416 13.218C73.9429 13.0127 73.5883 12.91 73.1776 12.91ZM85.5666 15.262C85.5666 16.0273 85.394 16.704 85.0486 17.292C84.7126 17.8707 84.2553 18.3233 83.6766 18.65C83.1073 18.9767 82.468 19.14 81.7586 19.14C81.0493 19.14 80.4053 18.9767 79.8266 18.65C79.2573 18.3233 78.8 17.8707 78.4546 17.292C78.1186 16.704 77.9506 16.0273 77.9506 15.262C77.9506 14.4967 78.1186 13.8247 78.4546 13.246C78.8 12.658 79.2573 12.2007 79.8266 11.874C80.4053 11.538 81.0493 11.37 81.7586 11.37C82.468 11.37 83.1073 11.538 83.6766 11.874C84.2553 12.2007 84.7126 12.658 85.0486 13.246C85.394 13.8247 85.5666 14.4967 85.5666 15.262ZM83.8866 15.262C83.8866 14.786 83.7886 14.3753 83.5926 14.03C83.406 13.6753 83.1493 13.4 82.8226 13.204C82.5053 13.008 82.1506 12.91 81.7586 12.91C81.3666 12.91 81.0073 13.008 80.6806 13.204C80.3633 13.4 80.1066 13.6753 79.9106 14.03C79.724 14.3753 79.6306 14.786 79.6306 15.262C79.6306 15.7287 79.724 16.1393 79.9106 16.494C80.1066 16.8393 80.3633 17.11 80.6806 17.306C81.0073 17.502 81.3666 17.6 81.7586 17.6C82.1506 17.6 82.5053 17.502 82.8226 17.306C83.1493 17.11 83.406 16.8393 83.5926 16.494C83.7886 16.1393 83.8866 15.7287 83.8866 15.262ZM94.303 15.262C94.303 16.0273 94.1303 16.704 93.785 17.292C93.449 17.8707 92.9916 18.3233 92.413 18.65C91.8436 18.9767 91.2043 19.14 90.495 19.14C89.7856 19.14 89.1416 18.9767 88.563 18.65C87.9936 18.3233 87.5363 17.8707 87.191 17.292C86.855 16.704 86.687 16.0273 86.687 15.262C86.687 14.4967 86.855 13.8247 87.191 13.246C87.5363 12.658 87.9936 12.2007 88.563 11.874C89.1416 11.538 89.7856 11.37 90.495 11.37C91.2043 11.37 91.8436 11.538 92.413 11.874C92.9916 12.2007 93.449 12.658 93.785 13.246C94.1303 13.8247 94.303 14.4967 94.303 15.262ZM92.623 15.262C92.623 14.786 92.525 14.3753 92.329 14.03C92.1423 13.6753 91.8856 13.4 91.559 13.204C91.2416 13.008 90.887 12.91 90.495 12.91C90.103 12.91 89.7436 13.008 89.417 13.204C89.0996 13.4 88.843 13.6753 88.647 14.03C88.4603 14.3753 88.367 14.786 88.367 15.262C88.367 15.7287 88.4603 16.1393 88.647 16.494C88.843 16.8393 89.0996 17.11 89.417 17.306C89.7436 17.502 90.103 17.6 90.495 17.6C90.887 17.6 91.2416 17.502 91.559 17.306C91.8856 17.11 92.1423 16.8393 92.329 16.494C92.525 16.1393 92.623 15.7287 92.623 15.262ZM96.7533 19C96.5106 19 96.3099 18.9207 96.1513 18.762C95.9926 18.594 95.9133 18.3887 95.9133 18.146V9.494C95.9133 9.25133 95.9926 9.05067 96.1513 8.892C96.3099 8.724 96.5106 8.64 96.7533 8.64C96.9959 8.64 97.1966 8.724 97.3553 8.892C97.5139 9.05067 97.5933 9.25133 97.5933 9.494V18.146C97.5933 18.3887 97.5139 18.594 97.3553 18.762C97.1966 18.9207 96.9959 19 96.7533 19ZM101.205 11.51C101.42 11.51 101.607 11.5987 101.765 11.776C101.924 11.9533 102.003 12.126 102.003 12.294C102.003 12.518 101.891 12.728 101.667 12.924L97.4533 16.802L97.3833 14.87L100.589 11.776C100.767 11.5987 100.972 11.51 101.205 11.51ZM101.415 18.986C101.173 18.986 100.967 18.8927 100.799 18.706L98.2093 15.962L99.4833 14.786L102.003 17.53C102.181 17.7167 102.269 17.9267 102.269 18.16C102.269 18.4027 102.171 18.6033 101.975 18.762C101.789 18.9113 101.602 18.986 101.415 18.986Z" fill="black"/>
</g>
<defs>
<filter id="filter0_d_53_277" x="0" y="0" width="112" height="35" filterUnits="userSpaceOnUse" color-interpolation-filters="sRGB">
<feFlood flood-opacity="0" result="BackgroundImageFix"/>
<feColorMatrix in="SourceAlpha" type="matrix" values="0 0 0 0 0 0 0 0 0 0 0 0 0 0 0 0 0 0 127 0" result="hardAlpha"/>
<feOffset dy="4"/>
<feGaussianBlur stdDeviation="2"/>
<feComposite in2="hardAlpha" operator="out"/>
<feColorMatrix type="matrix" values="0 0 0 0 0 0 0 0 0 0 0 0 0 0 0 0 0 0 0.25 0"/>
<feBlend mode="normal" in2="BackgroundImageFix" result="effect1_dropShadow_53_277"/>
<feBlend mode="normal" in="SourceGraphic" in2="effect1_dropShadow_53_277" result="shape"/>
</filter>
</defs>
</svg>
