<svg width="97" height="35" viewBox="0 0 97 35" fill="none" xmlns="http://www.w3.org/2000/svg">
<g filter="url(#filter0_d_53_261)">
<rect x="4" width="89" height="27" rx="5" fill="white"/>
</g>
<path d="M32.8055 12.0415H32V12H23V16H28.6515C27.827 18.3285 25.6115 20 23 20C19.6865 20 17 17.3135 17 14C17 10.6865 19.6865 8 23 8C24.5295 8 25.921 8.577 26.9805 9.5195L29.809 6.691C28.023 5.0265 25.634 4 23 4C17.4775 4 13 8.4775 13 14C13 19.5225 17.4775 24 23 24C28.5225 24 33 19.5225 33 14C33 13.3295 32.931 12.675 32.8055 12.0415Z" fill="#FFC107"/>
<path d="M14.153 9.3455L17.4385 11.755C18.3275 9.554 20.4805 8 23 8C24.5295 8 25.921 8.577 26.9805 9.5195L29.809 6.691C28.023 5.0265 25.634 4 23 4C19.159 4 15.828 6.1685 14.153 9.3455Z" fill="#FF3D00"/>
<path d="M23 24C25.583 24 27.93 23.0115 29.7045 21.404L26.6095 18.785C25.5717 19.5742 24.3037 20.001 23 20C20.399 20 18.1905 18.3415 17.3585 16.027L14.0975 18.5395C15.7525 21.778 19.1135 24 23 24Z" fill="#4CAF50"/>
<path d="M32.8055 12.0415H32V12H23V16H28.6515C28.2571 17.1082 27.5467 18.0766 26.608 18.7855L26.6095 18.7845L29.7045 21.4035C29.4855 21.6025 33 19 33 14C33 13.3295 32.931 12.675 32.8055 12.0415Z" fill="#1976D2"/>
<path d="M43.0434 10.37C43.4354 10.37 43.7947 10.4307 44.1214 10.552C44.4481 10.6733 44.7281 10.8273 44.9614 11.014C45.2041 11.2007 45.3907 11.392 45.5214 11.588C45.6614 11.7747 45.7314 11.9333 45.7314 12.064L45.3674 12.246V11.224C45.3674 10.9813 45.4467 10.7807 45.6054 10.622C45.7641 10.454 45.9647 10.37 46.2074 10.37C46.4501 10.37 46.6507 10.4493 46.8094 10.608C46.9681 10.7667 47.0474 10.972 47.0474 11.224V17.454C47.0474 18.266 46.8701 18.9147 46.5154 19.4C46.1701 19.8947 45.7127 20.2493 45.1434 20.464C44.5741 20.688 43.9627 20.8 43.3094 20.8C43.1227 20.8 42.8801 20.7767 42.5814 20.73C42.2827 20.6833 41.9981 20.6273 41.7274 20.562C41.4567 20.4967 41.2514 20.436 41.1114 20.38C40.8314 20.2587 40.6354 20.1047 40.5234 19.918C40.4207 19.7407 40.4021 19.5493 40.4674 19.344C40.5514 19.0733 40.6867 18.8867 40.8734 18.784C41.0601 18.6907 41.2561 18.6813 41.4614 18.756C41.5547 18.784 41.7087 18.84 41.9234 18.924C42.1381 19.008 42.3714 19.0827 42.6234 19.148C42.8847 19.2227 43.1134 19.26 43.3094 19.26C44.0094 19.26 44.5274 19.12 44.8634 18.84C45.1994 18.56 45.3674 18.1727 45.3674 17.678V16.46L45.5354 16.586C45.5354 16.7073 45.4701 16.8567 45.3394 17.034C45.2181 17.202 45.0454 17.37 44.8214 17.538C44.6067 17.706 44.3501 17.8507 44.0514 17.972C43.7527 18.084 43.4354 18.14 43.0994 18.14C42.4367 18.14 41.8394 17.9767 41.3074 17.65C40.7754 17.314 40.3554 16.8567 40.0474 16.278C39.7394 15.69 39.5854 15.018 39.5854 14.262C39.5854 13.4967 39.7394 12.8247 40.0474 12.246C40.3554 11.658 40.7707 11.2007 41.2934 10.874C41.8161 10.538 42.3994 10.37 43.0434 10.37ZM43.3094 11.91C42.8894 11.91 42.5207 12.0127 42.2034 12.218C41.8861 12.4233 41.6387 12.7033 41.4614 13.058C41.2841 13.4127 41.1954 13.814 41.1954 14.262C41.1954 14.7007 41.2841 15.0973 41.4614 15.452C41.6387 15.8067 41.8861 16.0867 42.2034 16.292C42.5207 16.4973 42.8894 16.6 43.3094 16.6C43.7387 16.6 44.1121 16.4973 44.4294 16.292C44.7467 16.0867 44.9941 15.8067 45.1714 15.452C45.3487 15.0973 45.4374 14.7007 45.4374 14.262C45.4374 13.814 45.3487 13.4127 45.1714 13.058C44.9941 12.7033 44.7467 12.4233 44.4294 12.218C44.1121 12.0127 43.7387 11.91 43.3094 11.91ZM55.8557 14.262C55.8557 15.0273 55.683 15.704 55.3377 16.292C55.0017 16.8707 54.5444 17.3233 53.9657 17.65C53.3964 17.9767 52.757 18.14 52.0477 18.14C51.3384 18.14 50.6944 17.9767 50.1157 17.65C49.5464 17.3233 49.089 16.8707 48.7437 16.292C48.4077 15.704 48.2397 15.0273 48.2397 14.262C48.2397 13.4967 48.4077 12.8247 48.7437 12.246C49.089 11.658 49.5464 11.2007 50.1157 10.874C50.6944 10.538 51.3384 10.37 52.0477 10.37C52.757 10.37 53.3964 10.538 53.9657 10.874C54.5444 11.2007 55.0017 11.658 55.3377 12.246C55.683 12.8247 55.8557 13.4967 55.8557 14.262ZM54.1757 14.262C54.1757 13.786 54.0777 13.3753 53.8817 13.03C53.695 12.6753 53.4384 12.4 53.1117 12.204C52.7944 12.008 52.4397 11.91 52.0477 11.91C51.6557 11.91 51.2964 12.008 50.9697 12.204C50.6524 12.4 50.3957 12.6753 50.1997 13.03C50.013 13.3753 49.9197 13.786 49.9197 14.262C49.9197 14.7287 50.013 15.1393 50.1997 15.494C50.3957 15.8393 50.6524 16.11 50.9697 16.306C51.2964 16.502 51.6557 16.6 52.0477 16.6C52.4397 16.6 52.7944 16.502 53.1117 16.306C53.4384 16.11 53.695 15.8393 53.8817 15.494C54.0777 15.1393 54.1757 14.7287 54.1757 14.262ZM64.592 14.262C64.592 15.0273 64.4193 15.704 64.074 16.292C63.738 16.8707 63.2807 17.3233 62.702 17.65C62.1327 17.9767 61.4933 18.14 60.784 18.14C60.0747 18.14 59.4307 17.9767 58.852 17.65C58.2827 17.3233 57.8253 16.8707 57.48 16.292C57.144 15.704 56.976 15.0273 56.976 14.262C56.976 13.4967 57.144 12.8247 57.48 12.246C57.8253 11.658 58.2827 11.2007 58.852 10.874C59.4307 10.538 60.0747 10.37 60.784 10.37C61.4933 10.37 62.1327 10.538 62.702 10.874C63.2807 11.2007 63.738 11.658 64.074 12.246C64.4193 12.8247 64.592 13.4967 64.592 14.262ZM62.912 14.262C62.912 13.786 62.814 13.3753 62.618 13.03C62.4313 12.6753 62.1747 12.4 61.848 12.204C61.5307 12.008 61.176 11.91 60.784 11.91C60.392 11.91 60.0327 12.008 59.706 12.204C59.3887 12.4 59.132 12.6753 58.936 13.03C58.7493 13.3753 58.656 13.786 58.656 14.262C58.656 14.7287 58.7493 15.1393 58.936 15.494C59.132 15.8393 59.3887 16.11 59.706 16.306C60.0327 16.502 60.392 16.6 60.784 16.6C61.176 16.6 61.5307 16.502 61.848 16.306C62.1747 16.11 62.4313 15.8393 62.618 15.494C62.814 15.1393 62.912 14.7287 62.912 14.262ZM69.1703 10.37C69.5623 10.37 69.9217 10.4307 70.2483 10.552C70.575 10.6733 70.855 10.8273 71.0883 11.014C71.331 11.2007 71.5177 11.392 71.6483 11.588C71.7883 11.7747 71.8583 11.9333 71.8583 12.064L71.4943 12.246V11.224C71.4943 10.9813 71.5737 10.7807 71.7323 10.622C71.891 10.454 72.0917 10.37 72.3343 10.37C72.577 10.37 72.7777 10.4493 72.9363 10.608C73.095 10.7667 73.1743 10.972 73.1743 11.224V17.454C73.1743 18.266 72.997 18.9147 72.6423 19.4C72.297 19.8947 71.8397 20.2493 71.2703 20.464C70.701 20.688 70.0897 20.8 69.4363 20.8C69.2497 20.8 69.007 20.7767 68.7083 20.73C68.4097 20.6833 68.125 20.6273 67.8543 20.562C67.5837 20.4967 67.3783 20.436 67.2383 20.38C66.9583 20.2587 66.7623 20.1047 66.6503 19.918C66.5477 19.7407 66.529 19.5493 66.5943 19.344C66.6783 19.0733 66.8137 18.8867 67.0003 18.784C67.187 18.6907 67.383 18.6813 67.5883 18.756C67.6817 18.784 67.8357 18.84 68.0503 18.924C68.265 19.008 68.4983 19.0827 68.7503 19.148C69.0117 19.2227 69.2403 19.26 69.4363 19.26C70.1363 19.26 70.6543 19.12 70.9903 18.84C71.3263 18.56 71.4943 18.1727 71.4943 17.678V16.46L71.6623 16.586C71.6623 16.7073 71.597 16.8567 71.4663 17.034C71.345 17.202 71.1723 17.37 70.9483 17.538C70.7337 17.706 70.477 17.8507 70.1783 17.972C69.8797 18.084 69.5623 18.14 69.2263 18.14C68.5637 18.14 67.9663 17.9767 67.4343 17.65C66.9023 17.314 66.4823 16.8567 66.1743 16.278C65.8663 15.69 65.7123 15.018 65.7123 14.262C65.7123 13.4967 65.8663 12.8247 66.1743 12.246C66.4823 11.658 66.8977 11.2007 67.4203 10.874C67.943 10.538 68.5263 10.37 69.1703 10.37ZM69.4363 11.91C69.0163 11.91 68.6477 12.0127 68.3303 12.218C68.013 12.4233 67.7657 12.7033 67.5883 13.058C67.411 13.4127 67.3223 13.814 67.3223 14.262C67.3223 14.7007 67.411 15.0973 67.5883 15.452C67.7657 15.8067 68.013 16.0867 68.3303 16.292C68.6477 16.4973 69.0163 16.6 69.4363 16.6C69.8657 16.6 70.239 16.4973 70.5563 16.292C70.8737 16.0867 71.121 15.8067 71.2983 15.452C71.4757 15.0973 71.5643 14.7007 71.5643 14.262C71.5643 13.814 71.4757 13.4127 71.2983 13.058C71.121 12.7033 70.8737 12.4233 70.5563 12.218C70.239 12.0127 69.8657 11.91 69.4363 11.91ZM76.8101 17.146C76.8101 17.3887 76.7261 17.594 76.5581 17.762C76.3994 17.9207 76.1987 18 75.9561 18C75.7227 18 75.5267 17.9207 75.3681 17.762C75.2094 17.594 75.1301 17.3887 75.1301 17.146V8.494C75.1301 8.25133 75.2094 8.05067 75.3681 7.892C75.5361 7.724 75.7414 7.64 75.9841 7.64C76.2267 7.64 76.4227 7.724 76.5721 7.892C76.7307 8.05067 76.8101 8.25133 76.8101 8.494V17.146ZM82.1548 18.14C81.3615 18.14 80.6708 17.9767 80.0828 17.65C79.5041 17.314 79.0561 16.8613 78.7388 16.292C78.4308 15.7227 78.2768 15.0787 78.2768 14.36C78.2768 13.52 78.4448 12.806 78.7808 12.218C79.1261 11.6207 79.5741 11.1633 80.1248 10.846C80.6755 10.5287 81.2588 10.37 81.8748 10.37C82.3508 10.37 82.7988 10.468 83.2188 10.664C83.6481 10.86 84.0261 11.1307 84.3528 11.476C84.6795 11.812 84.9361 12.204 85.1228 12.652C85.3188 13.1 85.4168 13.576 85.4168 14.08C85.4075 14.304 85.3188 14.486 85.1508 14.626C84.9828 14.766 84.7868 14.836 84.5628 14.836H79.2148L78.7948 13.436H83.9328L83.6248 13.716V13.338C83.6061 13.0673 83.5081 12.8247 83.3308 12.61C83.1628 12.3953 82.9481 12.2273 82.6868 12.106C82.4348 11.9753 82.1641 11.91 81.8748 11.91C81.5948 11.91 81.3335 11.9473 81.0908 12.022C80.8481 12.0967 80.6381 12.2227 80.4608 12.4C80.2835 12.5773 80.1435 12.8153 80.0408 13.114C79.9381 13.4127 79.8868 13.7907 79.8868 14.248C79.8868 14.752 79.9895 15.1813 80.1948 15.536C80.4095 15.8813 80.6801 16.1473 81.0068 16.334C81.3428 16.5113 81.6975 16.6 82.0708 16.6C82.4161 16.6 82.6915 16.572 82.8968 16.516C83.1021 16.46 83.2655 16.3947 83.3868 16.32C83.5175 16.236 83.6341 16.166 83.7368 16.11C83.9048 16.026 84.0635 15.984 84.2128 15.984C84.4181 15.984 84.5861 16.054 84.7168 16.194C84.8568 16.334 84.9268 16.4973 84.9268 16.684C84.9268 16.936 84.7961 17.1647 84.5348 17.37C84.2921 17.5753 83.9515 17.7573 83.5128 17.916C83.0741 18.0653 82.6215 18.14 82.1548 18.14Z" fill="black"/>
<defs>
<filter id="filter0_d_53_261" x="0" y="0" width="97" height="35" filterUnits="userSpaceOnUse" color-interpolation-filters="sRGB">
<feFlood flood-opacity="0" result="BackgroundImageFix"/>
<feColorMatrix in="SourceAlpha" type="matrix" values="0 0 0 0 0 0 0 0 0 0 0 0 0 0 0 0 0 0 127 0" result="hardAlpha"/>
<feOffset dy="4"/>
<feGaussianBlur stdDeviation="2"/>
<feComposite in2="hardAlpha" operator="out"/>
<feColorMatrix type="matrix" values="0 0 0 0 0 0 0 0 0 0 0 0 0 0 0 0 0 0 0.25 0"/>
<feBlend mode="normal" in2="BackgroundImageFix" result="effect1_dropShadow_53_261"/>
<feBlend mode="normal" in="SourceGraphic" in2="effect1_dropShadow_53_261" result="shape"/>
</filter>
</defs>
</svg>
