<svg width="32" height="32" viewBox="0 0 32 32" fill="none" xmlns="http://www.w3.org/2000/svg">
<path d="M29.3333 15.9974C29.3333 8.63339 23.364 2.66406 16 2.66406C8.636 2.66406 2.66667 8.63339 2.66667 15.9974C2.66375 18.1575 3.18779 20.2856 4.19334 22.1974L2.70534 27.9161C2.65585 28.1071 2.6571 28.3077 2.70897 28.4981C2.76083 28.6886 2.86152 28.8621 3.00106 29.0017C3.14061 29.1412 3.31417 29.2419 3.50458 29.2938C3.69498 29.3456 3.89563 29.3469 4.08667 29.2974L9.80667 27.8081C11.7168 28.8112 13.8425 29.3338 16 29.3307C23.364 29.3307 29.3333 23.3614 29.3333 15.9974ZM16 8.66673C16.2652 8.66673 16.5196 8.77208 16.7071 8.95962C16.8946 9.14716 17 9.40151 17 9.66673V18.0001C17 18.2653 16.8946 18.5196 16.7071 18.7072C16.5196 18.8947 16.2652 19.0001 16 19.0001C15.7348 19.0001 15.4804 18.8947 15.2929 18.7072C15.1054 18.5196 15 18.2653 15 18.0001V9.66673C15 9.40151 15.1054 9.14716 15.2929 8.95962C15.4804 8.77208 15.7348 8.66673 16 8.66673ZM17.3333 21.9961C17.3333 22.3497 17.1929 22.6888 16.9428 22.9389C16.6928 23.1889 16.3536 23.3294 16 23.3294C15.6464 23.3294 15.3072 23.1889 15.0572 22.9389C14.8071 22.6888 14.6667 22.3497 14.6667 21.9961C14.6667 21.6424 14.8071 21.3033 15.0572 21.0532C15.3072 20.8032 15.6464 20.6627 16 20.6627C16.3536 20.6627 16.6928 20.8032 16.9428 21.0532C17.1929 21.3033 17.3333 21.6424 17.3333 21.9961Z" fill="#9C9797"/>
</svg>
