<svg width="41" height="41" viewBox="0 0 41 41" fill="none" xmlns="http://www.w3.org/2000/svg">
<circle cx="20.5" cy="20.5" r="20.5" fill="white"/>
<path d="M27.8 15.4842H12.8V14.8842L26 13.8282V14.8842H27.8V13.0842C27.8 11.7642 26.7308 10.8378 25.4252 11.0238L13.376 12.7446C12.0692 12.9318 11 14.1642 11 15.4842V27.4842C11 28.1207 11.2529 28.7311 11.7029 29.1812C12.153 29.6313 12.7635 29.8842 13.4 29.8842H27.8C28.4365 29.8842 29.047 29.6313 29.4971 29.1812C29.9471 28.7311 30.2 28.1207 30.2 27.4842V17.8842C30.2 17.2477 29.9471 16.6372 29.4971 16.1871C29.047 15.737 28.4365 15.4842 27.8 15.4842ZM26 23.8914C25.7635 23.8913 25.5294 23.8446 25.311 23.7541C25.0926 23.6635 24.8941 23.5308 24.727 23.3636C24.5598 23.1963 24.4272 22.9978 24.3368 22.7793C24.2464 22.5608 24.1999 22.3266 24.2 22.0902C24.2001 21.8537 24.2467 21.6196 24.3373 21.4012C24.4279 21.1827 24.5605 20.9843 24.7278 20.8171C24.8951 20.65 25.0936 20.5174 25.3121 20.427C25.5306 20.3366 25.7647 20.2901 26.0012 20.2902C26.4787 20.2903 26.9367 20.4802 27.2742 20.818C27.6118 21.1558 27.8014 21.6138 27.8012 22.0914C27.801 22.5689 27.6112 23.0269 27.2734 23.3644C26.9356 23.702 26.4775 23.8915 26 23.8914Z" fill="#CAA291"/>
</svg>
