<svg width="22" height="22" viewBox="0 0 22 22" fill="none" xmlns="http://www.w3.org/2000/svg">
<g clip-path="url(#clip0_53_104)">
<path d="M5.81479 18.8421L6.17444 19.0199C7.67319 19.9086 9.35163 20.3234 11.0302 20.3234C16.3054 20.3234 20.6216 16.0573 20.6216 10.8431C20.6216 8.35454 19.6024 5.9252 17.8041 4.14762C16.0057 2.37004 13.6078 1.36279 11.0302 1.36279C5.75489 1.36279 1.43868 5.62892 1.49866 10.9024C1.49866 12.6799 2.03818 14.3983 2.93734 15.8795L3.17711 16.235L2.21805 19.7309L5.81479 18.8421Z" fill="#00E676"/>
<path d="M18.8231 3.1996C16.785 1.12582 13.9675 0 11.0901 0C4.97561 0 0.0599844 4.91789 0.119883 10.9023C0.119883 12.7984 0.659398 14.6353 1.55865 16.2943L0 21.9232L5.81479 20.4419C7.43334 21.3307 9.23166 21.7455 11.0302 21.7455C17.0847 21.7455 22.0003 16.8275 22.0003 10.8432C22.0003 7.93979 20.8613 5.21417 18.8232 3.1996H18.8231ZM11.0901 19.9087C9.47152 19.9087 7.85297 19.494 6.47419 18.6645L6.11454 18.4867L2.63768 19.3755L3.53684 15.9982L3.29708 15.6426C0.659398 11.4358 1.9183 5.86593 6.23442 3.2588C10.5505 0.651761 16.1256 1.89608 18.7633 6.16221C21.4008 10.4283 20.1419 15.9388 15.8259 18.5459C14.447 19.4347 12.7686 19.9086 11.0901 19.9086V19.9087ZM16.3653 13.3318L15.7059 13.0356C15.7059 13.0356 14.7469 12.6208 14.1474 12.3245C14.0874 12.3245 14.0275 12.2652 13.9675 12.2652C13.7876 12.2652 13.6678 12.3245 13.5479 12.3838C13.5479 12.3838 13.488 12.443 12.6487 13.391C12.5887 13.5095 12.4688 13.5688 12.349 13.5688H12.289C12.2291 13.5688 12.1092 13.5095 12.0492 13.4503L11.7495 13.3318C11.0901 13.0356 10.4906 12.68 10.011 12.206C9.89115 12.0875 9.71128 11.969 9.5914 11.8505C9.17177 11.4358 8.75213 10.9617 8.45247 10.4284L8.39248 10.3099C8.33259 10.2506 8.33259 10.1914 8.2726 10.0729C8.2726 9.95445 8.2726 9.83595 8.33259 9.77666C8.33259 9.77666 8.57235 9.48039 8.75213 9.30269C8.8721 9.18411 8.932 9.00641 9.05188 8.88792C9.17177 8.71013 9.23175 8.47314 9.17177 8.29536C9.11187 7.99908 8.39248 6.39928 8.2127 6.0438C8.09273 5.86602 7.97294 5.80681 7.79307 5.74752H7.13367C7.0137 5.74752 6.89391 5.80681 6.77394 5.80681L6.71395 5.86602C6.59407 5.9253 6.47419 6.0438 6.3543 6.103C6.23442 6.22158 6.17444 6.33999 6.05455 6.45857C5.63492 6.99184 5.39516 7.6436 5.39516 8.29536C5.39516 8.76934 5.51504 9.2434 5.69491 9.65817L5.75489 9.83595C6.29441 10.9617 7.0137 11.969 7.97294 12.8578L8.2127 13.0948C8.39248 13.2725 8.57235 13.391 8.69223 13.5687C9.95113 14.6354 11.3898 15.4056 13.0084 15.8204C13.1882 15.8796 13.428 15.8796 13.6079 15.9389H14.2073C14.507 15.9389 14.8667 15.8204 15.1065 15.7019C15.2863 15.5834 15.4062 15.5834 15.5261 15.4649L15.646 15.3463C15.7659 15.2278 15.8858 15.1686 16.0057 15.0501C16.1256 14.9316 16.2455 14.8131 16.3054 14.6946C16.4253 14.4576 16.4852 14.1613 16.5452 13.8651V13.4503C16.5452 13.4503 16.4852 13.391 16.3653 13.3318Z" fill="white"/>
</g>
<defs>
<clipPath id="clip0_53_104">
<rect width="22" height="22" fill="white"/>
</clipPath>
</defs>
</svg>
