<svg width="120" height="35" viewBox="0 0 120 35" fill="none" xmlns="http://www.w3.org/2000/svg">
<g filter="url(#filter0_d_53_295)">
<rect x="4" width="112" height="27" rx="5" fill="white"/>
</g>
<g filter="url(#filter1_d_53_295)">
<rect x="4" width="112" height="27" rx="5" fill="white"/>
</g>
<g clip-path="url(#clip0_53_295)">
<path d="M17.2698 22.555L17.6576 22.749C19.2736 23.7185 21.0834 24.171 22.8933 24.171C28.5813 24.171 33.2352 19.517 33.2352 13.8288C33.2352 11.1141 32.1363 8.46388 30.1973 6.52469C28.2581 4.58551 25.6726 3.4867 22.8933 3.4867C17.2052 3.4867 12.5513 8.14066 12.616 13.8935C12.616 15.8326 13.1977 17.7072 14.1672 19.3231L14.4257 19.711L13.3916 23.5247L17.2698 22.555Z" fill="#00E676"/>
<path d="M31.2965 5.49047C29.0988 3.22817 26.0608 2 22.9581 2C16.3651 2 11.0647 7.36497 11.1293 13.8934C11.1293 15.9619 11.711 17.9657 12.6806 19.7756L11 25.9162L17.2699 24.3003C19.0152 25.2699 20.9543 25.7224 22.8935 25.7224C29.422 25.7224 34.7224 20.3573 34.7224 13.8289C34.7224 10.6616 33.4942 7.68819 31.2966 5.49047H31.2965ZM22.9581 23.7186C21.2129 23.7186 19.4676 23.2662 17.9809 22.3613L17.5931 22.1673L13.8441 23.1369L14.8137 19.4525L14.5552 19.0646C11.711 14.4754 13.0684 8.3992 17.7224 5.55506C22.3764 2.71101 28.3878 4.06845 31.2319 8.72241C34.076 13.3764 32.7185 19.3878 28.0646 22.2319C26.5779 23.2015 24.768 23.7185 22.9581 23.7185V23.7186ZM28.6463 16.5438L27.9353 16.2206C27.9353 16.2206 26.9012 15.7681 26.2547 15.4449C26.1901 15.4449 26.1255 15.3802 26.0608 15.3802C25.8668 15.3802 25.7376 15.4449 25.6083 15.5096C25.6083 15.5096 25.5437 15.5742 24.6388 16.6084C24.5741 16.7377 24.4448 16.8023 24.3156 16.8023H24.2509C24.1863 16.8023 24.057 16.7377 23.9923 16.6731L23.6691 16.5438C22.9581 16.2206 22.3118 15.8327 21.7946 15.3156C21.6654 15.1864 21.4714 15.0571 21.3421 14.9278C20.8897 14.4754 20.4372 13.9582 20.1141 13.3765L20.0494 13.2472C19.9848 13.1825 19.9848 13.1179 19.9201 12.9887C19.9201 12.8594 19.9201 12.7301 19.9848 12.6655C19.9848 12.6655 20.2433 12.3422 20.4372 12.1484C20.5665 12.019 20.6311 11.8252 20.7604 11.6959C20.8897 11.502 20.9543 11.2434 20.8897 11.0495C20.8251 10.7263 20.0494 8.98103 19.8555 8.59324C19.7262 8.39929 19.597 8.3347 19.4031 8.27002H18.692C18.5627 8.27002 18.4335 8.3347 18.3042 8.3347L18.2395 8.39929C18.1102 8.46397 17.9809 8.59324 17.8517 8.65782C17.7224 8.78718 17.6577 8.91636 17.5285 9.04571C17.076 9.62746 16.8175 10.3385 16.8175 11.0495C16.8175 11.5665 16.9467 12.0837 17.1407 12.5362L17.2053 12.7301C17.7871 13.9582 18.5627 15.0571 19.597 16.0267L19.8555 16.2852C20.0494 16.4791 20.2433 16.6084 20.3726 16.8023C21.73 17.9658 23.2813 18.8061 25.0266 19.2586C25.2205 19.3232 25.479 19.3232 25.673 19.3879H26.3193C26.6425 19.3879 27.0303 19.2586 27.289 19.1293C27.4828 19.0001 27.6121 19.0001 27.7413 18.8708L27.8707 18.7414C28 18.6122 28.1292 18.5476 28.2585 18.4183C28.3878 18.2891 28.517 18.1598 28.5817 18.0304C28.711 17.7719 28.7756 17.4487 28.8402 17.1256V16.6731C28.8402 16.6731 28.7756 16.6084 28.6463 16.5438V16.5438Z" fill="white"/>
</g>
<path d="M51.0497 9.158C51.2644 9.158 51.4697 9.242 51.6657 9.41C51.8617 9.56867 51.9597 9.788 51.9597 10.068C51.9597 10.152 51.9457 10.2453 51.9177 10.348L49.1597 18.468C49.1037 18.636 49.001 18.7667 48.8517 18.86C48.7117 18.944 48.5624 18.9907 48.4037 19C48.245 19 48.0864 18.9533 47.9277 18.86C47.7784 18.7667 47.6617 18.6313 47.5777 18.454L45.5057 13.75L45.6317 13.834L43.5877 18.454C43.5037 18.6313 43.3824 18.7667 43.2237 18.86C43.0744 18.9533 42.9204 19 42.7617 19C42.6124 18.9907 42.463 18.944 42.3137 18.86C42.1644 18.7667 42.0617 18.636 42.0057 18.468L39.2477 10.348C39.2197 10.2453 39.2057 10.152 39.2057 10.068C39.2057 9.788 39.3037 9.56867 39.4997 9.41C39.705 9.242 39.915 9.158 40.1297 9.158C40.307 9.158 40.4704 9.20467 40.6197 9.298C40.7784 9.39133 40.8857 9.52667 40.9417 9.704L43.1677 16.452L42.8597 16.438L44.8477 11.664C44.9224 11.496 45.0297 11.3653 45.1697 11.272C45.3097 11.1693 45.4684 11.1227 45.6457 11.132C45.823 11.1227 45.9817 11.1693 46.1217 11.272C46.2617 11.3653 46.3644 11.496 46.4297 11.664L48.2497 16.228L48.0257 16.368L50.2237 9.704C50.2797 9.52667 50.387 9.39133 50.5457 9.298C50.7044 9.20467 50.8724 9.158 51.0497 9.158ZM57.0327 11.37C57.7047 11.37 58.2134 11.5147 58.5587 11.804C58.9134 12.0933 59.1561 12.4807 59.2867 12.966C59.4174 13.442 59.4827 13.974 59.4827 14.562V18.146C59.4827 18.3887 59.4034 18.594 59.2447 18.762C59.0861 18.9207 58.8854 19 58.6427 19C58.4001 19 58.1994 18.9207 58.0407 18.762C57.8821 18.594 57.8027 18.3887 57.8027 18.146V14.562C57.8027 14.254 57.7654 13.9787 57.6907 13.736C57.6161 13.484 57.4807 13.2833 57.2847 13.134C57.0887 12.9847 56.8087 12.91 56.4447 12.91C56.0901 12.91 55.7867 12.9847 55.5347 13.134C55.2827 13.2833 55.0914 13.484 54.9607 13.736C54.8394 13.9787 54.7787 14.254 54.7787 14.562V18.146C54.7787 18.3887 54.6994 18.594 54.5407 18.762C54.3821 18.9207 54.1814 19 53.9387 19C53.6961 19 53.4954 18.9207 53.3367 18.762C53.1781 18.594 53.0987 18.3887 53.0987 18.146V9.494C53.0987 9.25133 53.1781 9.05067 53.3367 8.892C53.4954 8.724 53.6961 8.64 53.9387 8.64C54.1814 8.64 54.3821 8.724 54.5407 8.892C54.6994 9.05067 54.7787 9.25133 54.7787 9.494V12.966L54.5687 12.924C54.6527 12.7653 54.7694 12.5973 54.9187 12.42C55.0681 12.2333 55.2501 12.0607 55.4647 11.902C55.6794 11.7433 55.9174 11.6173 56.1787 11.524C56.4401 11.4213 56.7247 11.37 57.0327 11.37ZM67.4338 11.37C67.6765 11.37 67.8772 11.4493 68.0358 11.608C68.1945 11.7667 68.2738 11.972 68.2738 12.224V18.146C68.2738 18.3887 68.1945 18.594 68.0358 18.762C67.8772 18.9207 67.6765 19 67.4338 19C67.1912 19 66.9905 18.9207 66.8318 18.762C66.6732 18.594 66.5938 18.3887 66.5938 18.146V17.46L66.9018 17.586C66.9018 17.7073 66.8365 17.8567 66.7058 18.034C66.5752 18.202 66.3978 18.37 66.1738 18.538C65.9498 18.706 65.6838 18.8507 65.3758 18.972C65.0772 19.084 64.7505 19.14 64.3958 19.14C63.7518 19.14 63.1685 18.9767 62.6458 18.65C62.1232 18.314 61.7078 17.8567 61.3998 17.278C61.1012 16.69 60.9518 16.018 60.9518 15.262C60.9518 14.4967 61.1012 13.8247 61.3998 13.246C61.7078 12.658 62.1185 12.2007 62.6318 11.874C63.1452 11.538 63.7145 11.37 64.3398 11.37C64.7412 11.37 65.1098 11.4307 65.4458 11.552C65.7818 11.6733 66.0712 11.8273 66.3138 12.014C66.5658 12.2007 66.7572 12.392 66.8878 12.588C67.0278 12.7747 67.0978 12.9333 67.0978 13.064L66.5938 13.246V12.224C66.5938 11.9813 66.6732 11.7807 66.8318 11.622C66.9905 11.454 67.1912 11.37 67.4338 11.37ZM64.6058 17.6C65.0165 17.6 65.3758 17.4973 65.6838 17.292C65.9918 17.0867 66.2298 16.8067 66.3978 16.452C66.5752 16.0973 66.6638 15.7007 66.6638 15.262C66.6638 14.814 66.5752 14.4127 66.3978 14.058C66.2298 13.7033 65.9918 13.4233 65.6838 13.218C65.3758 13.0127 65.0165 12.91 64.6058 12.91C64.2045 12.91 63.8498 13.0127 63.5418 13.218C63.2338 13.4233 62.9912 13.7033 62.8138 14.058C62.6458 14.4127 62.5618 14.814 62.5618 15.262C62.5618 15.7007 62.6458 16.0973 62.8138 16.452C62.9912 16.8067 63.2338 17.0867 63.5418 17.292C63.8498 17.4973 64.2045 17.6 64.6058 17.6ZM70.1769 11.65H73.4949C73.7189 11.65 73.9055 11.7247 74.0549 11.874C74.2042 12.0233 74.2789 12.21 74.2789 12.434C74.2789 12.6487 74.2042 12.8307 74.0549 12.98C73.9055 13.12 73.7189 13.19 73.4949 13.19H70.1769C69.9529 13.19 69.7662 13.1153 69.6169 12.966C69.4675 12.8167 69.3929 12.63 69.3929 12.406C69.3929 12.1913 69.4675 12.014 69.6169 11.874C69.7662 11.7247 69.9529 11.65 70.1769 11.65ZM71.6749 9.9C71.9175 9.9 72.1135 9.984 72.2629 10.152C72.4215 10.3107 72.5009 10.5113 72.5009 10.754V16.984C72.5009 17.1147 72.5242 17.222 72.5709 17.306C72.6269 17.39 72.6969 17.4507 72.7809 17.488C72.8742 17.5253 72.9722 17.544 73.0749 17.544C73.1869 17.544 73.2895 17.5253 73.3829 17.488C73.4762 17.4413 73.5835 17.418 73.7049 17.418C73.8355 17.418 73.9522 17.4787 74.0549 17.6C74.1669 17.7213 74.2229 17.8893 74.2229 18.104C74.2229 18.3653 74.0782 18.58 73.7889 18.748C73.5089 18.916 73.2055 19 72.8789 19C72.6829 19 72.4635 18.986 72.2209 18.958C71.9875 18.9207 71.7635 18.8413 71.5489 18.72C71.3435 18.5893 71.1709 18.3933 71.0309 18.132C70.8909 17.8707 70.8209 17.5113 70.8209 17.054V10.754C70.8209 10.5113 70.9002 10.3107 71.0589 10.152C71.2269 9.984 71.4322 9.9 71.6749 9.9ZM75.6608 17.838C75.5675 17.7073 75.5255 17.5393 75.5348 17.334C75.5441 17.1287 75.6655 16.9513 75.8988 16.802C76.0481 16.7087 76.2068 16.6713 76.3748 16.69C76.5428 16.6993 76.7061 16.7833 76.8648 16.942C77.1355 17.2127 77.4201 17.4227 77.7188 17.572C78.0175 17.7213 78.3908 17.796 78.8388 17.796C78.9788 17.7867 79.1328 17.768 79.3008 17.74C79.4688 17.7027 79.6135 17.628 79.7348 17.516C79.8655 17.3947 79.9308 17.2127 79.9308 16.97C79.9308 16.7647 79.8608 16.6013 79.7208 16.48C79.5808 16.3587 79.3941 16.256 79.1608 16.172C78.9368 16.088 78.6848 16.0087 78.4048 15.934C78.1155 15.85 77.8168 15.7567 77.5088 15.654C77.2101 15.5513 76.9348 15.4207 76.6828 15.262C76.4308 15.094 76.2255 14.8747 76.0668 14.604C75.9081 14.3333 75.8288 13.9927 75.8288 13.582C75.8288 13.1153 75.9595 12.7187 76.2208 12.392C76.4821 12.0653 76.8181 11.8133 77.2288 11.636C77.6488 11.4587 78.0875 11.37 78.5448 11.37C78.8341 11.37 79.1375 11.4073 79.4548 11.482C79.7721 11.5473 80.0755 11.6593 80.3648 11.818C80.6541 11.9673 80.8968 12.168 81.0928 12.42C81.1955 12.56 81.2561 12.728 81.2748 12.924C81.2935 13.12 81.2048 13.2973 81.0088 13.456C80.8688 13.568 80.7055 13.6193 80.5188 13.61C80.3321 13.5913 80.1781 13.526 80.0568 13.414C79.8981 13.2087 79.6835 13.0453 79.4128 12.924C79.1515 12.8027 78.8481 12.742 78.5028 12.742C78.3628 12.742 78.2088 12.7607 78.0408 12.798C77.8821 12.826 77.7421 12.896 77.6208 13.008C77.4995 13.1107 77.4388 13.2787 77.4388 13.512C77.4388 13.7267 77.5088 13.8993 77.6488 14.03C77.7888 14.1513 77.9755 14.254 78.2088 14.338C78.4515 14.4127 78.7081 14.4873 78.9788 14.562C79.2588 14.6367 79.5435 14.7253 79.8328 14.828C80.1221 14.9307 80.3881 15.066 80.6308 15.234C80.8735 15.402 81.0695 15.6213 81.2188 15.892C81.3681 16.1533 81.4428 16.4893 81.4428 16.9C81.4428 17.376 81.3028 17.782 81.0228 18.118C80.7428 18.454 80.3928 18.7107 79.9728 18.888C79.5528 19.056 79.1235 19.14 78.6848 19.14C78.1341 19.14 77.5835 19.0467 77.0328 18.86C76.4821 18.664 76.0248 18.3233 75.6608 17.838ZM86.5867 11.398L83.5627 18.51C83.4974 18.6873 83.3947 18.8273 83.2547 18.93C83.1241 19.0233 82.9794 19.07 82.8207 19.07C82.5687 19.07 82.3821 19 82.2607 18.86C82.1394 18.72 82.0787 18.5473 82.0787 18.342C82.0787 18.258 82.0927 18.1693 82.1207 18.076L85.6067 9.704C85.6814 9.51733 85.7934 9.37267 85.9427 9.27C86.1014 9.16733 86.2694 9.12533 86.4467 9.144C86.6147 9.144 86.7687 9.19533 86.9087 9.298C87.0581 9.39133 87.1654 9.52667 87.2307 9.704L90.6747 17.908C90.7214 18.0293 90.7447 18.1413 90.7447 18.244C90.7447 18.496 90.6607 18.6967 90.4927 18.846C90.3341 18.9953 90.1567 19.07 89.9607 19.07C89.7927 19.07 89.6387 19.0187 89.4987 18.916C89.3681 18.8133 89.2654 18.6733 89.1907 18.496L86.1807 11.482L86.5867 11.398ZM83.9967 16.802L84.7667 15.192H88.5467L88.8127 16.802H83.9967ZM95.6681 11.37C96.3215 11.37 96.9048 11.538 97.4181 11.874C97.9408 12.2007 98.3515 12.6533 98.6501 13.232C98.9581 13.8107 99.1121 14.4827 99.1121 15.248C99.1121 16.0133 98.9581 16.69 98.6501 17.278C98.3515 17.8567 97.9455 18.314 97.4321 18.65C96.9281 18.9767 96.3588 19.14 95.7241 19.14C95.3508 19.14 95.0008 19.0793 94.6741 18.958C94.3475 18.8367 94.0581 18.6827 93.8061 18.496C93.5635 18.3093 93.3721 18.1227 93.2321 17.936C93.1015 17.74 93.0361 17.5767 93.0361 17.446L93.4701 17.264V20.946C93.4701 21.1887 93.3908 21.3893 93.2321 21.548C93.0735 21.716 92.8728 21.8 92.6301 21.8C92.3875 21.8 92.1868 21.7207 92.0281 21.562C91.8695 21.4033 91.7901 21.198 91.7901 20.946V12.364C91.7901 12.1213 91.8695 11.9207 92.0281 11.762C92.1868 11.594 92.3875 11.51 92.6301 11.51C92.8728 11.51 93.0735 11.594 93.2321 11.762C93.3908 11.9207 93.4701 12.1213 93.4701 12.364V13.05L93.2321 12.924C93.2321 12.8027 93.2975 12.658 93.4281 12.49C93.5588 12.3127 93.7361 12.14 93.9601 11.972C94.1841 11.7947 94.4408 11.65 94.7301 11.538C95.0288 11.426 95.3415 11.37 95.6681 11.37ZM95.4581 12.91C95.0475 12.91 94.6881 13.0127 94.3801 13.218C94.0721 13.4233 93.8295 13.7033 93.6521 14.058C93.4841 14.4033 93.4001 14.8 93.4001 15.248C93.4001 15.6867 93.4841 16.088 93.6521 16.452C93.8295 16.8067 94.0721 17.0867 94.3801 17.292C94.6881 17.4973 95.0475 17.6 95.4581 17.6C95.8688 17.6 96.2235 17.4973 96.5221 17.292C96.8301 17.0867 97.0681 16.8067 97.2361 16.452C97.4135 16.088 97.5021 15.6867 97.5021 15.248C97.5021 14.8 97.4135 14.4033 97.2361 14.058C97.0681 13.7033 96.8301 13.4233 96.5221 13.218C96.2235 13.0127 95.8688 12.91 95.4581 12.91ZM104.459 11.37C105.112 11.37 105.696 11.538 106.209 11.874C106.732 12.2007 107.142 12.6533 107.441 13.232C107.749 13.8107 107.903 14.4827 107.903 15.248C107.903 16.0133 107.749 16.69 107.441 17.278C107.142 17.8567 106.736 18.314 106.223 18.65C105.719 18.9767 105.15 19.14 104.515 19.14C104.142 19.14 103.792 19.0793 103.465 18.958C103.138 18.8367 102.849 18.6827 102.597 18.496C102.354 18.3093 102.163 18.1227 102.023 17.936C101.892 17.74 101.827 17.5767 101.827 17.446L102.261 17.264V20.946C102.261 21.1887 102.182 21.3893 102.023 21.548C101.864 21.716 101.664 21.8 101.421 21.8C101.178 21.8 100.978 21.7207 100.819 21.562C100.66 21.4033 100.581 21.198 100.581 20.946V12.364C100.581 12.1213 100.66 11.9207 100.819 11.762C100.978 11.594 101.178 11.51 101.421 11.51C101.664 11.51 101.864 11.594 102.023 11.762C102.182 11.9207 102.261 12.1213 102.261 12.364V13.05L102.023 12.924C102.023 12.8027 102.088 12.658 102.219 12.49C102.35 12.3127 102.527 12.14 102.751 11.972C102.975 11.7947 103.232 11.65 103.521 11.538C103.82 11.426 104.132 11.37 104.459 11.37ZM104.249 12.91C103.838 12.91 103.479 13.0127 103.171 13.218C102.863 13.4233 102.62 13.7033 102.443 14.058C102.275 14.4033 102.191 14.8 102.191 15.248C102.191 15.6867 102.275 16.088 102.443 16.452C102.62 16.8067 102.863 17.0867 103.171 17.292C103.479 17.4973 103.838 17.6 104.249 17.6C104.66 17.6 105.014 17.4973 105.313 17.292C105.621 17.0867 105.859 16.8067 106.027 16.452C106.204 16.088 106.293 15.6867 106.293 15.248C106.293 14.8 106.204 14.4033 106.027 14.058C105.859 13.7033 105.621 13.4233 105.313 13.218C105.014 13.0127 104.66 12.91 104.249 12.91Z" fill="black"/>
<defs>
<filter id="filter0_d_53_295" x="0" y="0" width="120" height="35" filterUnits="userSpaceOnUse" color-interpolation-filters="sRGB">
<feFlood flood-opacity="0" result="BackgroundImageFix"/>
<feColorMatrix in="SourceAlpha" type="matrix" values="0 0 0 0 0 0 0 0 0 0 0 0 0 0 0 0 0 0 127 0" result="hardAlpha"/>
<feOffset dy="4"/>
<feGaussianBlur stdDeviation="2"/>
<feComposite in2="hardAlpha" operator="out"/>
<feColorMatrix type="matrix" values="0 0 0 0 0 0 0 0 0 0 0 0 0 0 0 0 0 0 0.25 0"/>
<feBlend mode="normal" in2="BackgroundImageFix" result="effect1_dropShadow_53_295"/>
<feBlend mode="normal" in="SourceGraphic" in2="effect1_dropShadow_53_295" result="shape"/>
</filter>
<filter id="filter1_d_53_295" x="0" y="0" width="120" height="35" filterUnits="userSpaceOnUse" color-interpolation-filters="sRGB">
<feFlood flood-opacity="0" result="BackgroundImageFix"/>
<feColorMatrix in="SourceAlpha" type="matrix" values="0 0 0 0 0 0 0 0 0 0 0 0 0 0 0 0 0 0 127 0" result="hardAlpha"/>
<feOffset dy="4"/>
<feGaussianBlur stdDeviation="2"/>
<feComposite in2="hardAlpha" operator="out"/>
<feColorMatrix type="matrix" values="0 0 0 0 0 0 0 0 0 0 0 0 0 0 0 0 0 0 0.25 0"/>
<feBlend mode="normal" in2="BackgroundImageFix" result="effect1_dropShadow_53_295"/>
<feBlend mode="normal" in="SourceGraphic" in2="effect1_dropShadow_53_295" result="shape"/>
</filter>
<clipPath id="clip0_53_295">
<rect width="23.722" height="24" fill="white" transform="translate(11 2)"/>
</clipPath>
</defs>
</svg>
