<?xml version="1.0" encoding="UTF-8"?>
<!DOCTYPE svg PUBLIC "-//W3C//DTD SVG 1.1//EN" "http://www.w3.org/Graphics/SVG/1.1/DTD/svg11.dtd">
<!-- Creator: CorelDRAW 2019 (64-Bit) -->
<svg xmlns="http://www.w3.org/2000/svg" xml:space="preserve" width="2024px" height="720px" version="1.1" style="shape-rendering:geometricPrecision; text-rendering:geometricPrecision; image-rendering:optimizeQuality; fill-rule:evenodd; clip-rule:evenodd"
viewBox="0 0 2024 720.13"
 xmlns:xlink="http://www.w3.org/1999/xlink"
 xmlns:xodm="http://www.corel.com/coreldraw/odm/2003">
 <defs>
  <style type="text/css">
   <![CDATA[
    .fil2 {fill:blue}
    .fil4 {fill:#E6252D}
    .fil3 {fill:#F9CD09}
    .fil1 {fill:red}
    .fil0 {fill:white}
    .fil5 {fill:red;fill-rule:nonzero}
   ]]>
  </style>
 </defs>
 <g id="Layer_x0020_1">
  <metadata id="CorelCorpID_0Corel-Layer"/>
  <polygon class="fil0" points="0,0 2024,0 2024,720.13 0,720.13 "/>
  <path class="fil1" d="M89.88 45.06l1844.24 0c25.92,0 47.12,21.55 47.12,47.92l0 147.87 -230.81 0c-12.12,-133.9 -619.91,-162.44 -724.94,-163.24 -169.33,-1.29 -752.48,38.57 -752.48,160.64l-0.01 2.6 -230.24 0 0 -147.87c0,-26.37 21.2,-47.92 47.12,-47.92z"/>
  <path class="fil2" d="M272.84 459.75l-230.08 0 0 -198.8 230.21 0c-0.2,62.29 -1.04,138.67 -0.13,198.8zm1708.4 -198.8l0 198.8 -230.28 0c1.82,-62.14 -2.26,-136.09 -0.78,-198.8l231.06 0z"/>
  <path class="fil3" d="M1981.24 479.85l0 147.31c0,26.35 -21.2,47.91 -47.12,47.91l-1844.24 0c-25.92,0 -47.12,-21.56 -47.12,-47.91l0 -147.31 231.63 0c28.44,120.33 506.14,167.61 745.11,168.95 134.62,0.75 695.03,-42.07 729.41,-168.95l232.33 0z"/>
  <path class="fil4" d="M1022.64 112.74c131.27,1.21 693.51,58.35 688.34,129.27 -4.34,59.55 4.49,175.02 0,234.57 -5.2,69.01 -561.06,129.36 -691.89,128.25 -141.04,-1.19 -704.14,-47.86 -706.44,-134.64 -1.58,-59.67 0,-161.92 0,-221.61 0,-88.57 566.78,-137.15 709.99,-135.84zm-0.59 54.35l0 0c-135.22,-1.02 -670.38,31.6 -670.38,100.6 0,46.52 -1.45,138.37 0,184.86 2.17,69.36 533.86,97.01 667.03,97.93 123.53,0.86 648.38,-39.19 653.29,-92.95 4.24,-46.4 -4.09,-146.81 0,-193.21 4.89,-55.25 -525.99,-96.29 -649.94,-97.23z"/>
  <path class="fil2" d="M798.57 366.48c6.9,3.11 5.59,19.84 -2.93,37.23 -8.53,17.4 -21.1,29.04 -28.01,25.93 -6.91,-3.11 -5.6,-19.84 2.93,-37.24 8.52,-17.4 21.1,-29.04 28.01,-25.92zm467.82 1.5l0 0c6.9,3.12 5.6,19.85 -2.93,37.24 -8.53,17.39 -21.1,29.04 -28.01,25.92 -6.91,-3.11 -5.6,-19.83 2.93,-37.23 8.52,-17.39 21.1,-29.04 28.01,-25.93zm229.65 -4.88l0 0c3.77,2.85 0.36,13.77 -7.6,24.31 -7.96,10.53 -17.53,16.79 -21.31,13.94 -3.77,-2.86 -0.36,-13.78 7.6,-24.31 7.96,-10.53 17.53,-16.8 21.31,-13.94zm4.84 -22.55l0 0c-26.26,-2 -43.84,16.22 -53.05,34.21 -7.31,14.27 -9.48,34.77 -4.26,51.9 -7.57,6.12 -17.02,11.41 -32.04,14.41 -7.45,1.48 -11.56,-4.16 -11.49,-9.34 0.18,-14.91 1.79,-27.4 6.07,-41.39 1.75,-5.77 7.73,-3.8 9.75,-8.69 4.19,-10.14 4.7,-19.94 -8.69,-18.33 -8.59,1.02 -17.91,2.32 -18.23,-9.31 -0.32,-11.35 13.54,-17.41 11.47,-18.39 -7.65,-3.68 -14.11,-0.03 -22.11,-2.88 -2.24,-0.8 -0.4,-5.89 -2.66,-6.65 -3.06,-1.01 -8.44,2.22 -10.2,4.91 -3.87,5.93 -3.53,11.36 -6.42,18.36 -2.4,5.87 -2.65,12.4 -3.98,18.6 -4.17,12.22 -30.62,50.06 -50.05,59.93 -10.91,5.55 -17.79,0.66 -14.41,-10.75 4.51,-15.22 19.49,-52.28 29.24,-78.42 -9.53,0.23 -17.98,0.98 -27.5,1.2 -1.12,3.33 -2.76,5.58 -3.87,8.9 -21.35,-13.66 -34.33,-8.43 -53.71,5.51 -14.42,10.38 -27.08,26.07 -33.88,44.87 -2.71,7.46 -4.19,15.02 -4.39,22.1 -11.79,4.27 -23.51,10.59 -34.03,9.02 -2.56,-0.38 -4.32,-4.31 -3.73,-6.84 3.52,-15.2 10.97,-29.25 15.56,-44.17 2.88,-9.37 8.62,-18.97 6.84,-28.61 -2.4,-12.98 -18.97,-13.38 -28,-8.71 -7.66,3.98 -13.5,10.93 -21.14,14.93 -1.52,0.79 -3.71,-0.09 -4.99,-1.24 -3.28,-2.98 -4.83,-7.55 -8.08,-10.57 -2.86,-2.67 -6.12,-5.44 -9.96,-6.23 -4.69,-0.96 -9.88,-0.59 -14.3,1.24 -9.36,3.9 -16.04,14.53 -26.12,15.56 -4.37,0.44 -1.56,-9.06 -4.36,-12.44 -6.75,-8.15 -13.21,-5.32 -21.15,-1.87 -16.31,7.08 -32.43,14.6 -48.63,21.95 1.6,3.27 2.96,6.67 4.06,10.19 6.46,-2.21 13.13,-5.04 19.69,-6.64 3.02,-0.74 6.7,-2.28 9.33,-0.62 2.38,1.5 3.33,5.39 2.48,8.09 -8.85,28.5 -20.73,55.98 -31.09,83.97 10.78,-0.21 21.56,-0.41 32.34,-0.61 9.75,-25.1 16.54,-51.54 29.24,-75.28 2.29,-4.27 8.92,-5.92 13.68,-4.97 3.27,0.65 4.4,5.42 4.98,8.7 0.72,4.11 0.1,8.5 -1.24,12.45 -6.79,20.02 -15.35,39.39 -23.02,59.1 11.82,-0.22 24.26,0.82 36.07,0.61 11.41,-26.12 15.9,-52.91 29.87,-77.75 1.73,-3.09 10.9,-4.1 14.3,-3.11 2.27,0.66 4.85,3.29 4.36,5.6 -3.02,13.97 -10.74,26.59 -14.31,40.43 -1.65,6.44 -3.05,13.51 -1.24,19.9 1.52,5.4 5.56,10.56 10.57,13.07 4.27,2.13 9.9,1.21 14.31,-0.63 16.74,-6.94 32.26,-16.48 48.28,-24.99 2.81,18 15.73,30.33 40.37,24.86 8.61,-1.92 13.29,-7.53 21.26,-11.3 4.03,12.9 12.93,18.17 27.24,12.29 35.33,-14.51 56.04,-39.73 82.17,-77.54 4.21,0.93 12.52,-1.46 16.73,-1.39 -4.5,13.6 -32.36,62.18 -3.24,76.82 8.14,4.08 14.36,2.75 23.32,1.12 20.12,-3.67 32.53,-12.21 42.21,-20.2 4.9,9.63 12.77,17.31 24.14,20.79 23.18,7.12 49.67,-5.15 66.22,-12.45 8.83,15.22 31.57,18.03 44.87,13.19 14.03,-5.11 26.69,-14.04 37.88,-23.92 2.33,-2.06 2.08,-7.28 -0.25,-9.32 -2.18,-1.91 -5.83,1.5 -8.16,3.24 -9.68,7.22 -29.08,25.45 -40.01,10.14 -4.89,-6.87 -1.63,-18.45 3.22,-31.58 4.72,-12.81 9.27,-29.38 13.9,-42.22 6.61,-0.54 14.03,0.16 20.63,-0.38 2.86,-8.03 4.07,-14.42 6.93,-22.45 -4.46,-0.35 -10.56,0.11 -15.02,-0.24 4.12,-21.5 12.99,-43.4 20.52,-64.9 -10.14,0.19 -18.65,0.8 -28.79,0.99 -7.11,20.91 -12.7,41.41 -22.4,62.31 -6.63,0.2 -13.68,0.8 -20.3,1 -1.76,7.81 -3.51,15.62 -5.27,23.44 5.07,-0.19 12.19,-0.39 17.26,-0.59 -6.44,24.53 -13.44,46.65 -27.79,65.65 -5.1,6.76 -13.94,10.61 -22.23,12.31 -25.39,5.19 -35.18,-3.02 -39.2,-14.53 10.73,-8.99 21.37,-13.24 31.02,-23.35 15.56,-16.28 34.66,-59.17 -3.39,-62.07zm-882.33 -95.48l0 0c-40.31,4.64 -100.03,9.06 -134.13,31.52 -20.07,13.2 -38.08,38.58 -20.06,64.4 17.61,25.23 49.05,14.54 61.78,-2.23 -14.55,-1.91 -26.17,-4.63 -27.08,-15.06 -4.16,-47.4 39.17,-37.6 80.72,-51.15 -21.57,51.04 -40.99,142.05 -95.98,153.28 -39.99,8.18 -58.34,-9.49 -67.67,-34.39 -22.16,42.67 9.53,62.12 37.97,66.5 26.29,4.07 59.96,-12.34 78.55,-31.8 13.14,-8.56 26.28,-18.32 38.22,-29.41 3.15,-2.91 46.97,-36.46 42.92,-8.71 -3.56,24.47 -13.26,42.3 -20.52,65.94 10.78,0.21 21.56,0.42 32.34,0.62 7.88,-23.43 13.69,-47.66 23.64,-70.29 1.74,-3.95 6.3,-6.86 10.58,-7.47 3.96,-0.56 9.74,0.64 11.19,4.36 2.56,6.58 -1.08,14.91 -2.94,21.71 -3.04,11.12 -19.81,47.33 1.99,50.1 21.41,2.72 45.47,-12.6 58.16,-22.91 1.77,10.78 7.45,20.15 18.8,25.55 7.8,3.7 17.49,1.32 25.91,-0.6 6.83,-1.58 12.45,-6.44 18.68,-9.65 -1.12,15.62 13.79,13.78 23.77,9.04 22.57,-10.72 35.17,-18.25 50.57,-23.38 -1.58,-2.77 -2.99,-5.66 -4.22,-8.64 -11.1,2.82 -22.01,8.18 -33.37,7.32 -3.8,-0.29 -4.82,-7.24 -3.62,-10.85 15.93,-47.77 36.16,-94 54.23,-141 -9.43,0.61 -16.67,0.61 -26.12,1.21 -7.43,20.08 -17.06,40.77 -24.49,60.85 -35.47,-6.48 -68.49,3.42 -91.59,47.61 -4.93,9.42 -8.42,20.47 -9.07,31.09 -8.03,5.27 -15.51,10.68 -24.96,13.05 -3.52,0.88 -6.22,-4.62 -5.6,-8.2 2.05,-11.87 6.17,-23.25 10.18,-34.66 2.73,-7.79 12.86,-30.45 9.1,-38.12 -6.47,-13.3 -15.95,-13.23 -25.57,-9.27 -12.36,5.07 -24.94,16.56 -31.65,14.25 -9.87,-3.41 -7.07,-18.64 -21.89,-16.92 -4.68,0.54 -9.45,2.44 -13.57,4.48 -21.15,10.42 -41.23,25.37 -61.45,38.21 19.41,-37.3 37.81,-87.01 56.25,-136.38z"/>
  <path class="fil5" d="M929.04 322.36l0.01 0c20,0.01 38.17,8.17 51.33,21.33l0 0.01c13.15,13.16 21.31,31.31 21.32,51.3l0 0.04c0,20 -8.17,38.17 -21.32,51.33l-0.02 0c-13.16,13.15 -31.31,21.31 -51.29,21.31l-0.05 0c-20,0 -38.17,-8.16 -51.32,-21.32 -13.16,-13.16 -21.32,-31.31 -21.32,-51.31l0 -0.04c0,-20.01 8.16,-38.18 21.32,-51.33 13.15,-13.15 31.31,-21.31 51.32,-21.32l0.02 0zm0.01 8.86l-0.03 0c-17.56,0.01 -33.5,7.17 -45.05,18.73 -11.56,11.55 -18.74,27.5 -18.74,45.06l0 0.04c0.01,17.55 7.18,33.5 18.73,45.05 11.56,11.55 27.51,18.72 45.06,18.72l0.05 0c17.55,-0.01 33.49,-7.16 45.04,-18.71l0 -0.01c11.55,-11.55 18.73,-27.51 18.73,-45.06l0 -0.04c-0.01,-17.56 -7.17,-33.5 -18.71,-45.05l-0.02 0c-11.55,-11.56 -27.5,-18.73 -45.06,-18.73z"/>
  <path class="fil1" d="M929.04 340.06c30.35,0 54.96,24.61 54.96,54.96 0,30.36 -24.61,54.96 -54.96,54.96 -30.36,0 -54.97,-24.6 -54.97,-54.96 0,-30.35 24.61,-54.96 54.97,-54.96zm0 11.31c24.1,0 43.65,19.55 43.65,43.65 0,24.11 -19.55,43.65 -43.65,43.65 -24.11,0 -43.65,-19.54 -43.65,-43.65 0,-24.1 19.54,-43.65 43.65,-43.65z"/>
  <path class="fil1" d="M929.04 362.06c18.2,0 32.96,14.76 32.96,32.96 0,18.2 -14.76,32.96 -32.96,32.96 -18.2,0 -32.95,-14.76 -32.95,-32.96 0,-18.2 14.75,-32.96 32.95,-32.96z"/>
 </g>
</svg>
