<svg width="128" height="156" viewBox="0 0 128 156" fill="none" xmlns="http://www.w3.org/2000/svg">
<path d="M13.728 133.176C14.144 133.176 14.48 133.32 14.736 133.608C14.992 133.88 15.12 134.224 15.12 134.64V143.328C15.12 144.656 14.832 145.832 14.256 146.856C13.696 147.88 12.92 148.68 11.928 149.256C10.936 149.832 9.784 150.12 8.472 150.12C7.16 150.12 6 149.832 4.992 149.256C4 148.68 3.216 147.88 2.64 146.856C2.08 145.832 1.8 144.656 1.8 143.328V134.64C1.8 134.224 1.944 133.88 2.232 133.608C2.52 133.32 2.888 133.176 3.336 133.176C3.704 133.176 4.032 133.32 4.32 133.608C4.624 133.88 4.776 134.224 4.776 134.64V143.328C4.776 144.128 4.944 144.824 5.28 145.416C5.632 145.992 6.088 146.44 6.648 146.76C7.224 147.08 7.832 147.24 8.472 147.24C9.16 147.24 9.8 147.08 10.392 146.76C10.984 146.44 11.464 145.992 11.832 145.416C12.2 144.824 12.384 144.128 12.384 143.328V134.64C12.384 134.224 12.504 133.88 12.744 133.608C12.984 133.32 13.312 133.176 13.728 133.176ZM98.0852 136.968L92.9012 149.16C92.7892 149.464 92.6132 149.704 92.3732 149.88C92.1492 150.04 91.9012 150.12 91.6292 150.12C91.1972 150.12 90.8772 150 90.6692 149.76C90.4612 149.52 90.3572 149.224 90.3572 148.872C90.3572 148.728 90.3812 148.576 90.4292 148.416L96.4052 134.064C96.5332 133.744 96.7252 133.496 96.9812 133.32C97.2532 133.144 97.5412 133.072 97.8452 133.104C98.1332 133.104 98.3972 133.192 98.6372 133.368C98.8932 133.528 99.0772 133.76 99.1892 134.064L105.093 148.128C105.173 148.336 105.213 148.528 105.213 148.704C105.213 149.136 105.069 149.48 104.781 149.736C104.509 149.992 104.205 150.12 103.869 150.12C103.581 150.12 103.317 150.032 103.077 149.856C102.853 149.68 102.677 149.44 102.549 149.136L97.3892 137.112L98.0852 136.968ZM93.6452 146.232L94.9652 143.472H101.445L101.901 146.232H93.6452Z" fill="#005A00"/>
<path d="M28.9939 132.24C29.4099 132.24 29.7539 132.376 30.0259 132.648C30.2979 132.92 30.4339 133.272 30.4339 133.704V148.536C30.4339 148.952 30.2979 149.304 30.0259 149.592C29.7539 149.864 29.4099 150 28.9939 150C28.5779 150 28.2339 149.864 27.9619 149.592C27.6899 149.304 27.5539 148.952 27.5539 148.536V147.36L28.0819 147.576C28.0819 147.784 27.9699 148.04 27.7459 148.344C27.5219 148.632 27.2179 148.92 26.8339 149.208C26.4499 149.496 25.9939 149.744 25.4659 149.952C24.9539 150.144 24.3939 150.24 23.7859 150.24C22.6819 150.24 21.6819 149.96 20.7859 149.4C19.8899 148.824 19.1779 148.04 18.6499 147.048C18.1379 146.04 17.8819 144.888 17.8819 143.592C17.8819 142.28 18.1379 141.128 18.6499 140.136C19.1779 139.128 19.8819 138.344 20.7619 137.784C21.6419 137.208 22.6179 136.92 23.6899 136.92C24.3779 136.92 25.0099 137.024 25.5859 137.232C26.1619 137.44 26.6579 137.704 27.0739 138.024C27.5059 138.344 27.8339 138.672 28.0579 139.008C28.2979 139.328 28.4179 139.6 28.4179 139.824L27.5539 140.136V133.704C27.5539 133.288 27.6899 132.944 27.9619 132.672C28.2339 132.384 28.5779 132.24 28.9939 132.24ZM24.1459 147.6C24.8499 147.6 25.4659 147.424 25.9939 147.072C26.5219 146.72 26.9299 146.24 27.2179 145.632C27.5219 145.024 27.6739 144.344 27.6739 143.592C27.6739 142.824 27.5219 142.136 27.2179 141.528C26.9299 140.92 26.5219 140.44 25.9939 140.088C25.4659 139.736 24.8499 139.56 24.1459 139.56C23.4579 139.56 22.8499 139.736 22.3219 140.088C21.7939 140.44 21.3779 140.92 21.0739 141.528C20.7859 142.136 20.6419 142.824 20.6419 143.592C20.6419 144.344 20.7859 145.024 21.0739 145.632C21.3779 146.24 21.7939 146.72 22.3219 147.072C22.8499 147.424 23.4579 147.6 24.1459 147.6ZM43.4552 137.16C43.8712 137.16 44.2152 137.304 44.4872 137.592C44.7592 137.864 44.8952 138.208 44.8952 138.624V144.72C44.8952 146.416 44.4232 147.76 43.4792 148.752C42.5352 149.744 41.1752 150.24 39.3992 150.24C37.6232 150.24 36.2632 149.744 35.3192 148.752C34.3912 147.76 33.9272 146.416 33.9272 144.72V138.624C33.9272 138.208 34.0632 137.864 34.3352 137.592C34.6072 137.304 34.9512 137.16 35.3672 137.16C35.7832 137.16 36.1272 137.304 36.3992 137.592C36.6712 137.864 36.8072 138.208 36.8072 138.624V144.72C36.8072 145.696 37.0232 146.424 37.4552 146.904C37.8872 147.368 38.5352 147.6 39.3992 147.6C40.2792 147.6 40.9352 147.368 41.3672 146.904C41.7992 146.424 42.0152 145.696 42.0152 144.72V138.624C42.0152 138.208 42.1512 137.864 42.4232 137.592C42.6952 137.304 43.0392 137.16 43.4552 137.16ZM54.8771 136.92C56.0611 136.92 56.9571 137.168 57.5651 137.664C58.1891 138.16 58.6131 138.824 58.8371 139.656C59.0771 140.472 59.1971 141.384 59.1971 142.392V148.536C59.1971 148.952 59.0611 149.304 58.7891 149.592C58.5171 149.864 58.1731 150 57.7571 150C57.3411 150 56.9971 149.864 56.7251 149.592C56.4531 149.304 56.3171 148.952 56.3171 148.536V142.392C56.3171 141.864 56.2451 141.392 56.1011 140.976C55.9731 140.544 55.7331 140.2 55.3811 139.944C55.0291 139.688 54.5251 139.56 53.8691 139.56C53.2291 139.56 52.6851 139.688 52.2371 139.944C51.8051 140.2 51.4691 140.544 51.2291 140.976C51.0051 141.392 50.8931 141.864 50.8931 142.392V148.536C50.8931 148.952 50.7571 149.304 50.4851 149.592C50.2131 149.864 49.8691 150 49.4531 150C49.0371 150 48.6931 149.864 48.4211 149.592C48.1491 149.304 48.0131 148.952 48.0131 148.536V138.624C48.0131 138.208 48.1491 137.864 48.4211 137.592C48.6931 137.304 49.0371 137.16 49.4531 137.16C49.8691 137.16 50.2131 137.304 50.4851 137.592C50.7571 137.864 50.8931 138.208 50.8931 138.624V139.656L50.5331 139.584C50.6771 139.312 50.8851 139.024 51.1571 138.72C51.4291 138.4 51.7491 138.104 52.1171 137.832C52.4851 137.56 52.9011 137.344 53.3651 137.184C53.8291 137.008 54.3331 136.92 54.8771 136.92ZM72.822 136.92C73.238 136.92 73.582 137.056 73.854 137.328C74.126 137.6 74.262 137.952 74.262 138.384V148.536C74.262 148.952 74.126 149.304 73.854 149.592C73.582 149.864 73.238 150 72.822 150C72.406 150 72.062 149.864 71.79 149.592C71.518 149.304 71.382 148.952 71.382 148.536V147.36L71.91 147.576C71.91 147.784 71.798 148.04 71.574 148.344C71.35 148.632 71.046 148.92 70.662 149.208C70.278 149.496 69.822 149.744 69.294 149.952C68.782 150.144 68.222 150.24 67.614 150.24C66.51 150.24 65.51 149.96 64.614 149.4C63.718 148.824 63.006 148.04 62.478 147.048C61.966 146.04 61.71 144.888 61.71 143.592C61.71 142.28 61.966 141.128 62.478 140.136C63.006 139.128 63.71 138.344 64.59 137.784C65.47 137.208 66.446 136.92 67.518 136.92C68.206 136.92 68.838 137.024 69.414 137.232C69.99 137.44 70.486 137.704 70.902 138.024C71.334 138.344 71.662 138.672 71.886 139.008C72.126 139.328 72.246 139.6 72.246 139.824L71.382 140.136V138.384C71.382 137.968 71.518 137.624 71.79 137.352C72.062 137.064 72.406 136.92 72.822 136.92ZM67.974 147.6C68.678 147.6 69.294 147.424 69.822 147.072C70.35 146.72 70.758 146.24 71.046 145.632C71.35 145.024 71.502 144.344 71.502 143.592C71.502 142.824 71.35 142.136 71.046 141.528C70.758 140.92 70.35 140.44 69.822 140.088C69.294 139.736 68.678 139.56 67.974 139.56C67.286 139.56 66.678 139.736 66.15 140.088C65.622 140.44 65.206 140.92 64.902 141.528C64.614 142.136 64.47 142.824 64.47 143.592C64.47 144.344 64.614 145.024 64.902 145.632C65.206 146.24 65.622 146.72 66.15 147.072C66.678 147.424 67.286 147.6 67.974 147.6ZM84.2443 136.92C85.4283 136.92 86.3243 137.168 86.9323 137.664C87.5563 138.16 87.9803 138.824 88.2043 139.656C88.4443 140.472 88.5643 141.384 88.5643 142.392V148.536C88.5643 148.952 88.4283 149.304 88.1563 149.592C87.8843 149.864 87.5403 150 87.1243 150C86.7083 150 86.3643 149.864 86.0923 149.592C85.8203 149.304 85.6843 148.952 85.6843 148.536V142.392C85.6843 141.864 85.6123 141.392 85.4683 140.976C85.3403 140.544 85.1003 140.2 84.7483 139.944C84.3963 139.688 83.8923 139.56 83.2363 139.56C82.5963 139.56 82.0523 139.688 81.6043 139.944C81.1723 140.2 80.8363 140.544 80.5963 140.976C80.3723 141.392 80.2603 141.864 80.2603 142.392V148.536C80.2603 148.952 80.1243 149.304 79.8523 149.592C79.5803 149.864 79.2363 150 78.8203 150C78.4043 150 78.0603 149.864 77.7883 149.592C77.5163 149.304 77.3803 148.952 77.3803 148.536V138.624C77.3803 138.208 77.5163 137.864 77.7883 137.592C78.0603 137.304 78.4043 137.16 78.8203 137.16C79.2363 137.16 79.5803 137.304 79.8523 137.592C80.1243 137.864 80.2603 138.208 80.2603 138.624V139.656L79.9003 139.584C80.0443 139.312 80.2523 139.024 80.5243 138.72C80.7963 138.4 81.1163 138.104 81.4843 137.832C81.8523 137.56 82.2683 137.344 82.7323 137.184C83.1963 137.008 83.7003 136.92 84.2443 136.92ZM110.245 150.24C110.245 151.152 110.069 151.936 109.717 152.592C109.365 153.264 108.893 153.784 108.301 154.152C107.709 154.52 107.045 154.704 106.309 154.704C105.909 154.704 105.589 154.568 105.349 154.296C105.093 154.04 104.965 153.728 104.965 153.36V153.096C104.965 152.744 105.085 152.464 105.325 152.256C105.549 152.048 105.837 151.888 106.189 151.776C106.573 151.648 106.845 151.464 107.005 151.224C107.165 151 107.261 150.728 107.293 150.408C107.341 150.088 107.365 149.752 107.365 149.4V138.624C107.365 138.208 107.501 137.864 107.773 137.592C108.045 137.304 108.389 137.16 108.805 137.16C109.221 137.16 109.565 137.304 109.837 137.592C110.109 137.864 110.245 138.208 110.245 138.624V150.24ZM108.757 135.6C108.213 135.6 107.829 135.512 107.605 135.336C107.381 135.16 107.269 134.848 107.269 134.4V133.944C107.269 133.48 107.389 133.168 107.629 133.008C107.885 132.832 108.269 132.744 108.781 132.744C109.341 132.744 109.733 132.832 109.957 133.008C110.181 133.184 110.293 133.496 110.293 133.944V134.4C110.293 134.864 110.173 135.184 109.933 135.36C109.693 135.52 109.301 135.6 108.757 135.6ZM124.127 136.92C124.543 136.92 124.887 137.056 125.159 137.328C125.431 137.6 125.567 137.952 125.567 138.384V148.536C125.567 148.952 125.431 149.304 125.159 149.592C124.887 149.864 124.543 150 124.127 150C123.711 150 123.367 149.864 123.095 149.592C122.823 149.304 122.687 148.952 122.687 148.536V147.36L123.215 147.576C123.215 147.784 123.103 148.04 122.879 148.344C122.655 148.632 122.351 148.92 121.967 149.208C121.583 149.496 121.127 149.744 120.599 149.952C120.087 150.144 119.527 150.24 118.919 150.24C117.815 150.24 116.815 149.96 115.919 149.4C115.023 148.824 114.311 148.04 113.783 147.048C113.271 146.04 113.015 144.888 113.015 143.592C113.015 142.28 113.271 141.128 113.783 140.136C114.311 139.128 115.015 138.344 115.895 137.784C116.775 137.208 117.751 136.92 118.823 136.92C119.511 136.92 120.143 137.024 120.719 137.232C121.295 137.44 121.791 137.704 122.207 138.024C122.639 138.344 122.967 138.672 123.191 139.008C123.431 139.328 123.551 139.6 123.551 139.824L122.687 140.136V138.384C122.687 137.968 122.823 137.624 123.095 137.352C123.367 137.064 123.711 136.92 124.127 136.92ZM119.279 147.6C119.983 147.6 120.599 147.424 121.127 147.072C121.655 146.72 122.063 146.24 122.351 145.632C122.655 145.024 122.807 144.344 122.807 143.592C122.807 142.824 122.655 142.136 122.351 141.528C122.063 140.92 121.655 140.44 121.127 140.088C120.599 139.736 119.983 139.56 119.279 139.56C118.591 139.56 117.983 139.736 117.455 140.088C116.927 140.44 116.511 140.92 116.207 141.528C115.919 142.136 115.775 142.824 115.775 143.592C115.775 144.344 115.919 145.024 116.207 145.632C116.511 146.24 116.927 146.72 117.455 147.072C117.983 147.424 118.591 147.6 119.279 147.6Z" fill="#96D091"/>
<path fill-rule="evenodd" clip-rule="evenodd" d="M53.0253 2.3966C72.2007 1.11287 96.0608 -5.68586 104.356 11.5563C115.221 34.1377 110.501 64.3066 89.3116 77.8169C70.2161 89.992 48.0683 73.1627 30.9555 58.3558C19.017 48.0259 13.534 31.9011 19.3124 17.2497C24.2744 4.66829 39.4675 3.30425 53.0253 2.3966Z" fill="#005A00" fill-opacity="0.83"/>
<path fill-rule="evenodd" clip-rule="evenodd" d="M59.9515 43.688C70.9017 44.6379 79.4443 51.6473 83.7037 61.8503C89.8627 76.6038 97.805 94.93 85.6446 105.234C71.8909 116.888 51.5311 112.088 37.0176 101.41C22.6415 90.832 12.4466 72.8891 19.0606 56.2425C24.9129 41.513 44.2555 42.3264 59.9515 43.688Z" fill="#B0A968"/>
<path fill-rule="evenodd" clip-rule="evenodd" d="M84.036 29.152C83.288 28.404 82.342 28.03 81.198 28.03C80.054 28.03 79.108 28.426 78.36 29.218C77.612 29.966 77.238 30.912 77.238 32.056V32.1623C76.8463 31.7932 76.4063 31.4277 75.918 31.066C74.774 30.186 73.41 29.46 71.826 28.888C70.242 28.316 68.504 28.03 66.612 28.03C63.664 28.03 60.98 28.822 58.56 30.406C56.14 31.946 54.204 34.102 52.752 36.874C51.344 39.602 50.64 42.77 50.64 46.378C50.64 49.942 51.344 53.11 52.752 55.882C54.204 58.61 56.162 60.766 58.626 62.35C60.4839 63.5112 62.5044 64.2346 64.6876 64.5203C63.9934 65.2962 63.1802 65.9361 62.248 66.44C60.8667 67.1867 59.3733 67.56 57.768 67.56C56.2747 67.56 54.856 67.1867 53.512 66.44C52.2053 65.6934 51.1413 64.648 50.32 63.304C49.536 61.9227 49.144 60.2987 49.144 58.432V38.16C49.144 37.1894 48.7893 36.3867 48.08 35.752C47.408 35.08 46.6427 34.744 45.784 34.744C44.7387 34.744 43.88 35.08 43.208 35.752C42.536 36.3867 42.2 37.1894 42.2 38.16V58.432C42.2 61.5307 42.8533 64.2747 44.16 66.664C45.504 69.0534 47.3333 70.92 49.648 72.264C52 73.608 54.7067 74.28 57.768 74.28C60.8293 74.28 63.5173 73.608 65.832 72.264C68.1467 70.92 69.9573 69.0534 71.264 66.664C71.8424 65.6357 72.2964 64.5417 72.6259 63.382C73.609 62.9208 74.4864 62.4008 75.258 61.822C76.0384 61.2367 76.6987 60.6514 77.2388 60.0661C77.2584 61.17 77.6322 62.1074 78.36 62.878C79.108 63.626 80.054 64 81.198 64C82.342 64 83.288 63.626 84.036 62.878C84.784 62.086 85.158 61.118 85.158 59.974V32.056C85.158 30.868 84.784 29.9 84.036 29.152ZM73.28 55.7164V58.432C73.28 60.1971 73.062 61.8471 72.6259 63.382C72.2636 63.552 71.887 63.714 71.496 63.868C70.088 64.396 68.548 64.66 66.876 64.66C66.1292 64.66 65.3997 64.6134 64.6876 64.5203C65.022 64.1464 65.3288 63.741 65.608 63.304C66.4667 61.9227 66.896 60.2987 66.896 58.432V57.3559C67.2127 57.3853 67.536 57.4 67.866 57.4C69.802 57.4 71.496 56.916 72.948 55.948C73.0607 55.8729 73.1713 55.7957 73.28 55.7164ZM73.0485 36.8099C74.4519 37.7714 75.5404 39.0688 76.314 40.702C77.15 42.374 77.568 44.266 77.568 46.378C77.568 48.446 77.15 50.316 76.314 51.988C75.5835 53.5303 74.5721 54.7731 73.28 55.7164V38.16C73.28 37.6666 73.2028 37.2165 73.0485 36.8099ZM73.0485 36.8099C73.0151 36.7871 72.9817 36.7645 72.948 36.742C71.584 35.8327 70.0064 35.3505 68.2153 35.2954C68.7086 34.9278 69.3141 34.744 70.032 34.744C71.0027 34.744 71.7867 35.08 72.384 35.752C72.6777 36.0641 72.8992 36.4167 73.0485 36.8099ZM68.2153 35.2954C68.0416 35.4248 67.8819 35.577 67.736 35.752C67.176 36.3867 66.896 37.1894 66.896 38.16V57.3559C65.3974 57.2165 64.0487 56.7472 62.85 55.948C61.398 54.98 60.254 53.66 59.418 51.988C58.626 50.316 58.23 48.446 58.23 46.378C58.23 44.266 58.626 42.374 59.418 40.702C60.254 39.03 61.398 37.71 62.85 36.742C64.302 35.774 65.974 35.29 67.866 35.29C67.9833 35.29 68.0998 35.2918 68.2153 35.2954Z" fill="white"/>
</svg>
