<svg width="125" height="23" viewBox="0 0 125 23" fill="none" xmlns="http://www.w3.org/2000/svg">
<path d="M12.728 1.176C13.144 1.176 13.48 1.32 13.736 1.608C13.992 1.88 14.12 2.224 14.12 2.64V11.328C14.12 12.656 13.832 13.832 13.256 14.856C12.696 15.88 11.92 16.68 10.928 17.256C9.936 17.832 8.784 18.12 7.472 18.12C6.16 18.12 5 17.832 3.992 17.256C3 16.68 2.216 15.88 1.64 14.856C1.08 13.832 0.8 12.656 0.8 11.328V2.64C0.8 2.224 0.944 1.88 1.232 1.608C1.52 1.32 1.888 1.176 2.336 1.176C2.704 1.176 3.032 1.32 3.32 1.608C3.624 1.88 3.776 2.224 3.776 2.64V11.328C3.776 12.128 3.944 12.824 4.28 13.416C4.632 13.992 5.088 14.44 5.648 14.76C6.224 15.08 6.832 15.24 7.472 15.24C8.16 15.24 8.8 15.08 9.392 14.76C9.984 14.44 10.464 13.992 10.832 13.416C11.2 12.824 11.384 12.128 11.384 11.328V2.64C11.384 2.224 11.504 1.88 11.744 1.608C11.984 1.32 12.312 1.176 12.728 1.176Z" fill="#005A00"/>
<path d="M27.9939 0.24C28.4099 0.24 28.7539 0.375999 29.0259 0.647999C29.2979 0.919999 29.4339 1.272 29.4339 1.704V16.536C29.4339 16.952 29.2979 17.304 29.0259 17.592C28.7539 17.864 28.4099 18 27.9939 18C27.5779 18 27.2339 17.864 26.9619 17.592C26.6899 17.304 26.5539 16.952 26.5539 16.536V15.36L27.0819 15.576C27.0819 15.784 26.9699 16.04 26.7459 16.344C26.5219 16.632 26.2179 16.92 25.8339 17.208C25.4499 17.496 24.9939 17.744 24.4659 17.952C23.9539 18.144 23.3939 18.24 22.7859 18.24C21.6819 18.24 20.6819 17.96 19.7859 17.4C18.8899 16.824 18.1779 16.04 17.6499 15.048C17.1379 14.04 16.8819 12.888 16.8819 11.592C16.8819 10.28 17.1379 9.128 17.6499 8.136C18.1779 7.128 18.8819 6.344 19.7619 5.784C20.6419 5.208 21.6179 4.92 22.6899 4.92C23.3779 4.92 24.0099 5.024 24.5859 5.232C25.1619 5.44 25.6579 5.704 26.0739 6.024C26.5059 6.344 26.8339 6.672 27.0579 7.008C27.2979 7.328 27.4179 7.6 27.4179 7.824L26.5539 8.136V1.704C26.5539 1.288 26.6899 0.943999 26.9619 0.671999C27.2339 0.383999 27.5779 0.24 27.9939 0.24ZM23.1459 15.6C23.8499 15.6 24.4659 15.424 24.9939 15.072C25.5219 14.72 25.9299 14.24 26.2179 13.632C26.5219 13.024 26.6739 12.344 26.6739 11.592C26.6739 10.824 26.5219 10.136 26.2179 9.528C25.9299 8.92 25.5219 8.44 24.9939 8.088C24.4659 7.736 23.8499 7.56 23.1459 7.56C22.4579 7.56 21.8499 7.736 21.3219 8.088C20.7939 8.44 20.3779 8.92 20.0739 9.528C19.7859 10.136 19.6419 10.824 19.6419 11.592C19.6419 12.344 19.7859 13.024 20.0739 13.632C20.3779 14.24 20.7939 14.72 21.3219 15.072C21.8499 15.424 22.4579 15.6 23.1459 15.6ZM42.4552 5.16C42.8712 5.16 43.2152 5.304 43.4872 5.592C43.7592 5.864 43.8952 6.208 43.8952 6.624V12.72C43.8952 14.416 43.4232 15.76 42.4792 16.752C41.5352 17.744 40.1752 18.24 38.3992 18.24C36.6232 18.24 35.2632 17.744 34.3192 16.752C33.3912 15.76 32.9272 14.416 32.9272 12.72V6.624C32.9272 6.208 33.0632 5.864 33.3352 5.592C33.6072 5.304 33.9512 5.16 34.3672 5.16C34.7832 5.16 35.1272 5.304 35.3992 5.592C35.6712 5.864 35.8072 6.208 35.8072 6.624V12.72C35.8072 13.696 36.0232 14.424 36.4552 14.904C36.8872 15.368 37.5352 15.6 38.3992 15.6C39.2792 15.6 39.9352 15.368 40.3672 14.904C40.7992 14.424 41.0152 13.696 41.0152 12.72V6.624C41.0152 6.208 41.1512 5.864 41.4232 5.592C41.6952 5.304 42.0392 5.16 42.4552 5.16ZM53.8771 4.92C55.0611 4.92 55.9571 5.168 56.5651 5.664C57.1891 6.16 57.6131 6.824 57.8371 7.656C58.0771 8.472 58.1971 9.384 58.1971 10.392V16.536C58.1971 16.952 58.0611 17.304 57.7891 17.592C57.5171 17.864 57.1731 18 56.7571 18C56.3411 18 55.9971 17.864 55.7251 17.592C55.4531 17.304 55.3171 16.952 55.3171 16.536V10.392C55.3171 9.864 55.2451 9.392 55.1011 8.976C54.9731 8.544 54.7331 8.2 54.3811 7.944C54.0291 7.688 53.5251 7.56 52.8691 7.56C52.2291 7.56 51.6851 7.688 51.2371 7.944C50.8051 8.2 50.4691 8.544 50.2291 8.976C50.0051 9.392 49.8931 9.864 49.8931 10.392V16.536C49.8931 16.952 49.7571 17.304 49.4851 17.592C49.2131 17.864 48.8691 18 48.4531 18C48.0371 18 47.6931 17.864 47.4211 17.592C47.1491 17.304 47.0131 16.952 47.0131 16.536V6.624C47.0131 6.208 47.1491 5.864 47.4211 5.592C47.6931 5.304 48.0371 5.16 48.4531 5.16C48.8691 5.16 49.2131 5.304 49.4851 5.592C49.7571 5.864 49.8931 6.208 49.8931 6.624V7.656L49.5331 7.584C49.6771 7.312 49.8851 7.024 50.1571 6.72C50.4291 6.4 50.7491 6.104 51.1171 5.832C51.4851 5.56 51.9011 5.344 52.3651 5.184C52.8291 5.008 53.3331 4.92 53.8771 4.92ZM71.822 4.92C72.238 4.92 72.582 5.056 72.854 5.328C73.126 5.6 73.262 5.952 73.262 6.384V16.536C73.262 16.952 73.126 17.304 72.854 17.592C72.582 17.864 72.238 18 71.822 18C71.406 18 71.062 17.864 70.79 17.592C70.518 17.304 70.382 16.952 70.382 16.536V15.36L70.91 15.576C70.91 15.784 70.798 16.04 70.574 16.344C70.35 16.632 70.046 16.92 69.662 17.208C69.278 17.496 68.822 17.744 68.294 17.952C67.782 18.144 67.222 18.24 66.614 18.24C65.51 18.24 64.51 17.96 63.614 17.4C62.718 16.824 62.006 16.04 61.478 15.048C60.966 14.04 60.71 12.888 60.71 11.592C60.71 10.28 60.966 9.128 61.478 8.136C62.006 7.128 62.71 6.344 63.59 5.784C64.47 5.208 65.446 4.92 66.518 4.92C67.206 4.92 67.838 5.024 68.414 5.232C68.99 5.44 69.486 5.704 69.902 6.024C70.334 6.344 70.662 6.672 70.886 7.008C71.126 7.328 71.246 7.6 71.246 7.824L70.382 8.136V6.384C70.382 5.968 70.518 5.624 70.79 5.352C71.062 5.064 71.406 4.92 71.822 4.92ZM66.974 15.6C67.678 15.6 68.294 15.424 68.822 15.072C69.35 14.72 69.758 14.24 70.046 13.632C70.35 13.024 70.502 12.344 70.502 11.592C70.502 10.824 70.35 10.136 70.046 9.528C69.758 8.92 69.35 8.44 68.822 8.088C68.294 7.736 67.678 7.56 66.974 7.56C66.286 7.56 65.678 7.736 65.15 8.088C64.622 8.44 64.206 8.92 63.902 9.528C63.614 10.136 63.47 10.824 63.47 11.592C63.47 12.344 63.614 13.024 63.902 13.632C64.206 14.24 64.622 14.72 65.15 15.072C65.678 15.424 66.286 15.6 66.974 15.6ZM83.2443 4.92C84.4283 4.92 85.3243 5.168 85.9323 5.664C86.5563 6.16 86.9803 6.824 87.2043 7.656C87.4443 8.472 87.5643 9.384 87.5643 10.392V16.536C87.5643 16.952 87.4283 17.304 87.1563 17.592C86.8843 17.864 86.5403 18 86.1243 18C85.7083 18 85.3643 17.864 85.0923 17.592C84.8203 17.304 84.6843 16.952 84.6843 16.536V10.392C84.6843 9.864 84.6123 9.392 84.4683 8.976C84.3403 8.544 84.1003 8.2 83.7483 7.944C83.3963 7.688 82.8923 7.56 82.2363 7.56C81.5963 7.56 81.0523 7.688 80.6043 7.944C80.1723 8.2 79.8363 8.544 79.5963 8.976C79.3723 9.392 79.2603 9.864 79.2603 10.392V16.536C79.2603 16.952 79.1243 17.304 78.8523 17.592C78.5803 17.864 78.2363 18 77.8203 18C77.4043 18 77.0603 17.864 76.7883 17.592C76.5163 17.304 76.3803 16.952 76.3803 16.536V6.624C76.3803 6.208 76.5163 5.864 76.7883 5.592C77.0603 5.304 77.4043 5.16 77.8203 5.16C78.2363 5.16 78.5803 5.304 78.8523 5.592C79.1243 5.864 79.2603 6.208 79.2603 6.624V7.656L78.9003 7.584C79.0443 7.312 79.2523 7.024 79.5243 6.72C79.7963 6.4 80.1163 6.104 80.4843 5.832C80.8523 5.56 81.2683 5.344 81.7323 5.184C82.1963 5.008 82.7003 4.92 83.2443 4.92ZM109.245 18.24C109.245 19.152 109.069 19.936 108.717 20.592C108.365 21.264 107.893 21.784 107.301 22.152C106.709 22.52 106.045 22.704 105.309 22.704C104.909 22.704 104.589 22.568 104.349 22.296C104.093 22.04 103.965 21.728 103.965 21.36V21.096C103.965 20.744 104.085 20.464 104.325 20.256C104.549 20.048 104.837 19.888 105.189 19.776C105.573 19.648 105.845 19.464 106.005 19.224C106.165 19 106.261 18.728 106.293 18.408C106.341 18.088 106.365 17.752 106.365 17.4V6.624C106.365 6.208 106.501 5.864 106.773 5.592C107.045 5.304 107.389 5.16 107.805 5.16C108.221 5.16 108.565 5.304 108.837 5.592C109.109 5.864 109.245 6.208 109.245 6.624V18.24ZM107.757 3.6C107.213 3.6 106.829 3.512 106.605 3.336C106.381 3.16 106.269 2.848 106.269 2.4V1.944C106.269 1.48 106.389 1.168 106.629 1.008C106.885 0.831999 107.269 0.743999 107.781 0.743999C108.341 0.743999 108.733 0.831999 108.957 1.008C109.181 1.184 109.293 1.496 109.293 1.944V2.4C109.293 2.864 109.173 3.184 108.933 3.36C108.693 3.52 108.301 3.6 107.757 3.6ZM123.127 4.92C123.543 4.92 123.887 5.056 124.159 5.328C124.431 5.6 124.567 5.952 124.567 6.384V16.536C124.567 16.952 124.431 17.304 124.159 17.592C123.887 17.864 123.543 18 123.127 18C122.711 18 122.367 17.864 122.095 17.592C121.823 17.304 121.687 16.952 121.687 16.536V15.36L122.215 15.576C122.215 15.784 122.103 16.04 121.879 16.344C121.655 16.632 121.351 16.92 120.967 17.208C120.583 17.496 120.127 17.744 119.599 17.952C119.087 18.144 118.527 18.24 117.919 18.24C116.815 18.24 115.815 17.96 114.919 17.4C114.023 16.824 113.311 16.04 112.783 15.048C112.271 14.04 112.015 12.888 112.015 11.592C112.015 10.28 112.271 9.128 112.783 8.136C113.311 7.128 114.015 6.344 114.895 5.784C115.775 5.208 116.751 4.92 117.823 4.92C118.511 4.92 119.143 5.024 119.719 5.232C120.295 5.44 120.791 5.704 121.207 6.024C121.639 6.344 121.967 6.672 122.191 7.008C122.431 7.328 122.551 7.6 122.551 7.824L121.687 8.136V6.384C121.687 5.968 121.823 5.624 122.095 5.352C122.367 5.064 122.711 4.92 123.127 4.92ZM118.279 15.6C118.983 15.6 119.599 15.424 120.127 15.072C120.655 14.72 121.063 14.24 121.351 13.632C121.655 13.024 121.807 12.344 121.807 11.592C121.807 10.824 121.655 10.136 121.351 9.528C121.063 8.92 120.655 8.44 120.127 8.088C119.599 7.736 118.983 7.56 118.279 7.56C117.591 7.56 116.983 7.736 116.455 8.088C115.927 8.44 115.511 8.92 115.207 9.528C114.919 10.136 114.775 10.824 114.775 11.592C114.775 12.344 114.919 13.024 115.207 13.632C115.511 14.24 115.927 14.72 116.455 15.072C116.983 15.424 117.591 15.6 118.279 15.6Z" fill="#96D091"/>
<path d="M97.0852 4.968L91.9012 17.16C91.7892 17.464 91.6132 17.704 91.3732 17.88C91.1492 18.04 90.9012 18.12 90.6292 18.12C90.1972 18.12 89.8772 18 89.6692 17.76C89.4612 17.52 89.3572 17.224 89.3572 16.872C89.3572 16.728 89.3812 16.576 89.4292 16.416L95.4052 2.064C95.5332 1.744 95.7252 1.496 95.9812 1.32C96.2532 1.144 96.5412 1.072 96.8452 1.104C97.1332 1.104 97.3972 1.192 97.6372 1.368C97.8932 1.528 98.0772 1.76 98.1892 2.064L104.093 16.128C104.173 16.336 104.213 16.528 104.213 16.704C104.213 17.136 104.069 17.48 103.781 17.736C103.509 17.992 103.205 18.12 102.869 18.12C102.581 18.12 102.317 18.032 102.077 17.856C101.853 17.68 101.677 17.44 101.549 17.136L96.3892 5.112L97.0852 4.968ZM92.6452 14.232L93.9652 11.472H100.445L100.901 14.232H92.6452Z" fill="#106410"/>
</svg>
