<svg width="249" height="46" viewBox="0 0 249 46" fill="none" xmlns="http://www.w3.org/2000/svg">
<path d="M24.456 2.352C25.288 2.352 25.96 2.64 26.472 3.216C26.984 3.76 27.24 4.448 27.24 5.28V22.656C27.24 25.312 26.664 27.664 25.512 29.712C24.392 31.76 22.84 33.36 20.856 34.512C18.872 35.664 16.568 36.24 13.944 36.24C11.32 36.24 9 35.664 6.984 34.512C5 33.36 3.432 31.76 2.28 29.712C1.16 27.664 0.6 25.312 0.6 22.656V5.28C0.6 4.448 0.888 3.76 1.464 3.216C2.04 2.64 2.776 2.352 3.672 2.352C4.408 2.352 5.064 2.64 5.64 3.216C6.248 3.76 6.552 4.448 6.552 5.28V22.656C6.552 24.256 6.888 25.648 7.56 26.832C8.264 27.984 9.176 28.88 10.296 29.52C11.448 30.16 12.664 30.48 13.944 30.48C15.32 30.48 16.6 30.16 17.784 29.52C18.968 28.88 19.928 27.984 20.664 26.832C21.4 25.648 21.768 24.256 21.768 22.656V5.28C21.768 4.448 22.008 3.76 22.488 3.216C22.968 2.64 23.624 2.352 24.456 2.352Z" fill="#005A00"/>
<path d="M54.9878 0.48C55.8198 0.48 56.5078 0.751999 57.0518 1.296C57.5958 1.84 57.8678 2.544 57.8678 3.408V33.072C57.8678 33.904 57.5958 34.608 57.0518 35.184C56.5078 35.728 55.8198 36 54.9878 36C54.1558 36 53.4678 35.728 52.9238 35.184C52.3798 34.608 52.1078 33.904 52.1078 33.072V30.72L53.1638 31.152C53.1638 31.568 52.9398 32.08 52.4918 32.688C52.0438 33.264 51.4358 33.84 50.6678 34.416C49.8998 34.992 48.9878 35.488 47.9318 35.904C46.9078 36.288 45.7878 36.48 44.5718 36.48C42.3638 36.48 40.3638 35.92 38.5718 34.8C36.7798 33.648 35.3558 32.08 34.2998 30.096C33.2758 28.08 32.7638 25.776 32.7638 23.184C32.7638 20.56 33.2758 18.256 34.2998 16.272C35.3558 14.256 36.7638 12.688 38.5238 11.568C40.2838 10.416 42.2358 9.84 44.3798 9.84C45.7558 9.84 47.0198 10.048 48.1718 10.464C49.3238 10.88 50.3158 11.408 51.1478 12.048C52.0118 12.688 52.6678 13.344 53.1158 14.016C53.5958 14.656 53.8358 15.2 53.8358 15.648L52.1078 16.272V3.408C52.1078 2.576 52.3798 1.888 52.9238 1.344C53.4678 0.767999 54.1558 0.48 54.9878 0.48ZM45.2918 31.2C46.6998 31.2 47.9318 30.848 48.9878 30.144C50.0438 29.44 50.8598 28.48 51.4358 27.264C52.0438 26.048 52.3478 24.688 52.3478 23.184C52.3478 21.648 52.0438 20.272 51.4358 19.056C50.8598 17.84 50.0438 16.88 48.9878 16.176C47.9318 15.472 46.6998 15.12 45.2918 15.12C43.9158 15.12 42.6998 15.472 41.6438 16.176C40.5878 16.88 39.7558 17.84 39.1478 19.056C38.5718 20.272 38.2838 21.648 38.2838 23.184C38.2838 24.688 38.5718 26.048 39.1478 27.264C39.7558 28.48 40.5878 29.44 41.6438 30.144C42.6998 30.848 43.9158 31.2 45.2918 31.2ZM83.9104 10.32C84.7424 10.32 85.4304 10.608 85.9744 11.184C86.5184 11.728 86.7904 12.416 86.7904 13.248V25.44C86.7904 28.832 85.8464 31.52 83.9584 33.504C82.0704 35.488 79.3504 36.48 75.7984 36.48C72.2464 36.48 69.5264 35.488 67.6384 33.504C65.7824 31.52 64.8544 28.832 64.8544 25.44V13.248C64.8544 12.416 65.1264 11.728 65.6704 11.184C66.2144 10.608 66.9024 10.32 67.7344 10.32C68.5664 10.32 69.2544 10.608 69.7984 11.184C70.3424 11.728 70.6144 12.416 70.6144 13.248V25.44C70.6144 27.392 71.0464 28.848 71.9104 29.808C72.7744 30.736 74.0704 31.2 75.7984 31.2C77.5584 31.2 78.8704 30.736 79.7344 29.808C80.5984 28.848 81.0304 27.392 81.0304 25.44V13.248C81.0304 12.416 81.3024 11.728 81.8464 11.184C82.3904 10.608 83.0784 10.32 83.9104 10.32ZM106.754 9.84C109.122 9.84 110.914 10.336 112.13 11.328C113.378 12.32 114.226 13.648 114.674 15.312C115.154 16.944 115.394 18.768 115.394 20.784V33.072C115.394 33.904 115.122 34.608 114.578 35.184C114.034 35.728 113.346 36 112.514 36C111.682 36 110.994 35.728 110.45 35.184C109.906 34.608 109.634 33.904 109.634 33.072V20.784C109.634 19.728 109.49 18.784 109.202 17.952C108.946 17.088 108.466 16.4 107.762 15.888C107.058 15.376 106.05 15.12 104.738 15.12C103.458 15.12 102.37 15.376 101.474 15.888C100.61 16.4 99.9383 17.088 99.4583 17.952C99.0103 18.784 98.7863 19.728 98.7863 20.784V33.072C98.7863 33.904 98.5143 34.608 97.9703 35.184C97.4263 35.728 96.7383 36 95.9062 36C95.0743 36 94.3863 35.728 93.8423 35.184C93.2983 34.608 93.0263 33.904 93.0263 33.072V13.248C93.0263 12.416 93.2983 11.728 93.8423 11.184C94.3863 10.608 95.0743 10.32 95.9062 10.32C96.7383 10.32 97.4263 10.608 97.9703 11.184C98.5143 11.728 98.7863 12.416 98.7863 13.248V15.312L98.0663 15.168C98.3543 14.624 98.7703 14.048 99.3143 13.44C99.8583 12.8 100.498 12.208 101.234 11.664C101.97 11.12 102.802 10.688 103.73 10.368C104.658 10.016 105.666 9.84 106.754 9.84ZM142.644 9.84C143.476 9.84 144.164 10.112 144.708 10.656C145.252 11.2 145.524 11.904 145.524 12.768V33.072C145.524 33.904 145.252 34.608 144.708 35.184C144.164 35.728 143.476 36 142.644 36C141.812 36 141.124 35.728 140.58 35.184C140.036 34.608 139.764 33.904 139.764 33.072V30.72L140.82 31.152C140.82 31.568 140.596 32.08 140.148 32.688C139.7 33.264 139.092 33.84 138.324 34.416C137.556 34.992 136.644 35.488 135.588 35.904C134.564 36.288 133.444 36.48 132.228 36.48C130.02 36.48 128.02 35.92 126.228 34.8C124.436 33.648 123.012 32.08 121.956 30.096C120.932 28.08 120.42 25.776 120.42 23.184C120.42 20.56 120.932 18.256 121.956 16.272C123.012 14.256 124.42 12.688 126.18 11.568C127.94 10.416 129.892 9.84 132.036 9.84C133.412 9.84 134.676 10.048 135.828 10.464C136.98 10.88 137.972 11.408 138.804 12.048C139.668 12.688 140.324 13.344 140.772 14.016C141.252 14.656 141.492 15.2 141.492 15.648L139.764 16.272V12.768C139.764 11.936 140.036 11.248 140.58 10.704C141.124 10.128 141.812 9.84 142.644 9.84ZM132.948 31.2C134.356 31.2 135.588 30.848 136.644 30.144C137.7 29.44 138.516 28.48 139.092 27.264C139.7 26.048 140.004 24.688 140.004 23.184C140.004 21.648 139.7 20.272 139.092 19.056C138.516 17.84 137.7 16.88 136.644 16.176C135.588 15.472 134.356 15.12 132.948 15.12C131.572 15.12 130.356 15.472 129.3 16.176C128.244 16.88 127.412 17.84 126.804 19.056C126.228 20.272 125.94 21.648 125.94 23.184C125.94 24.688 126.228 26.048 126.804 27.264C127.412 28.48 128.244 29.44 129.3 30.144C130.356 30.848 131.572 31.2 132.948 31.2ZM165.489 9.84C167.857 9.84 169.649 10.336 170.865 11.328C172.113 12.32 172.961 13.648 173.409 15.312C173.889 16.944 174.129 18.768 174.129 20.784V33.072C174.129 33.904 173.857 34.608 173.313 35.184C172.769 35.728 172.081 36 171.249 36C170.417 36 169.729 35.728 169.185 35.184C168.641 34.608 168.369 33.904 168.369 33.072V20.784C168.369 19.728 168.225 18.784 167.937 17.952C167.681 17.088 167.201 16.4 166.497 15.888C165.793 15.376 164.785 15.12 163.473 15.12C162.193 15.12 161.105 15.376 160.209 15.888C159.345 16.4 158.673 17.088 158.193 17.952C157.745 18.784 157.521 19.728 157.521 20.784V33.072C157.521 33.904 157.249 34.608 156.705 35.184C156.161 35.728 155.473 36 154.641 36C153.809 36 153.121 35.728 152.577 35.184C152.033 34.608 151.761 33.904 151.761 33.072V13.248C151.761 12.416 152.033 11.728 152.577 11.184C153.121 10.608 153.809 10.32 154.641 10.32C155.473 10.32 156.161 10.608 156.705 11.184C157.249 11.728 157.521 12.416 157.521 13.248V15.312L156.801 15.168C157.089 14.624 157.505 14.048 158.049 13.44C158.593 12.8 159.233 12.208 159.969 11.664C160.705 11.12 161.537 10.688 162.465 10.368C163.393 10.016 164.401 9.84 165.489 9.84ZM217.491 36.48C217.491 38.304 217.139 39.872 216.435 41.184C215.731 42.528 214.787 43.568 213.603 44.304C212.419 45.04 211.091 45.408 209.619 45.408C208.819 45.408 208.179 45.136 207.699 44.592C207.187 44.08 206.931 43.456 206.931 42.72V42.192C206.931 41.488 207.171 40.928 207.651 40.512C208.099 40.096 208.675 39.776 209.379 39.552C210.147 39.296 210.691 38.928 211.011 38.448C211.331 38 211.523 37.456 211.587 36.816C211.683 36.176 211.731 35.504 211.731 34.8V13.248C211.731 12.416 212.003 11.728 212.547 11.184C213.091 10.608 213.779 10.32 214.611 10.32C215.443 10.32 216.131 10.608 216.675 11.184C217.219 11.728 217.491 12.416 217.491 13.248V36.48ZM214.515 7.2C213.427 7.2 212.659 7.024 212.211 6.672C211.763 6.32 211.539 5.696 211.539 4.8V3.888C211.539 2.96 211.779 2.336 212.259 2.016C212.771 1.664 213.539 1.488 214.563 1.488C215.683 1.488 216.467 1.664 216.915 2.016C217.363 2.368 217.587 2.992 217.587 3.888V4.8C217.587 5.728 217.347 6.368 216.867 6.72C216.387 7.04 215.603 7.2 214.515 7.2ZM245.253 9.84C246.085 9.84 246.773 10.112 247.317 10.656C247.861 11.2 248.133 11.904 248.133 12.768V33.072C248.133 33.904 247.861 34.608 247.317 35.184C246.773 35.728 246.085 36 245.253 36C244.421 36 243.733 35.728 243.189 35.184C242.645 34.608 242.373 33.904 242.373 33.072V30.72L243.429 31.152C243.429 31.568 243.205 32.08 242.757 32.688C242.309 33.264 241.701 33.84 240.933 34.416C240.165 34.992 239.253 35.488 238.197 35.904C237.173 36.288 236.053 36.48 234.837 36.48C232.629 36.48 230.629 35.92 228.837 34.8C227.045 33.648 225.621 32.08 224.565 30.096C223.541 28.08 223.029 25.776 223.029 23.184C223.029 20.56 223.541 18.256 224.565 16.272C225.621 14.256 227.029 12.688 228.789 11.568C230.549 10.416 232.501 9.84 234.645 9.84C236.021 9.84 237.285 10.048 238.437 10.464C239.589 10.88 240.581 11.408 241.413 12.048C242.277 12.688 242.933 13.344 243.381 14.016C243.861 14.656 244.101 15.2 244.101 15.648L242.373 16.272V12.768C242.373 11.936 242.645 11.248 243.189 10.704C243.733 10.128 244.421 9.84 245.253 9.84ZM235.557 31.2C236.965 31.2 238.197 30.848 239.253 30.144C240.309 29.44 241.125 28.48 241.701 27.264C242.309 26.048 242.613 24.688 242.613 23.184C242.613 21.648 242.309 20.272 241.701 19.056C241.125 17.84 240.309 16.88 239.253 16.176C238.197 15.472 236.965 15.12 235.557 15.12C234.181 15.12 232.965 15.472 231.909 16.176C230.853 16.88 230.021 17.84 229.413 19.056C228.837 20.272 228.549 21.648 228.549 23.184C228.549 24.688 228.837 26.048 229.413 27.264C230.021 28.48 230.853 29.44 231.909 30.144C232.965 30.848 234.181 31.2 235.557 31.2Z" fill="#96D091"/>
<path d="M193.17 9.936L182.802 34.32C182.578 34.928 182.226 35.408 181.746 35.76C181.298 36.08 180.802 36.24 180.258 36.24C179.394 36.24 178.754 36 178.338 35.52C177.922 35.04 177.714 34.448 177.714 33.744C177.714 33.456 177.762 33.152 177.858 32.832L189.81 4.128C190.066 3.488 190.45 2.992 190.962 2.64C191.506 2.288 192.082 2.144 192.69 2.208C193.266 2.208 193.794 2.384 194.274 2.736C194.786 3.056 195.154 3.52 195.378 4.128L207.186 32.256C207.346 32.672 207.426 33.056 207.426 33.408C207.426 34.272 207.138 34.96 206.562 35.472C206.018 35.984 205.41 36.24 204.738 36.24C204.162 36.24 203.634 36.064 203.154 35.712C202.706 35.36 202.354 34.88 202.098 34.272L191.778 10.224L193.17 9.936ZM184.29 28.464L186.93 22.944H199.89L200.802 28.464H184.29Z" fill="#106410"/>
</svg>